<?xml version="1.0" encoding="utf-8"?>
<!-- Generator: Adobe Illustrator 22.0.0, SVG Export Plug-In . SVG Version: 6.00 Build 0)  -->
<svg version="1.1" xmlns="http://www.w3.org/2000/svg" xmlns:xlink="http://www.w3.org/1999/xlink" x="0px" y="0px"
	 viewBox="0 0 841.9 424.9" style="enable-background:new 0 0 841.9 424.9;" xml:space="preserve">
<style type="text/css">
	.st0{opacity:0.1;}
	.st1{fill:#F2D5D0;}
	.st2{fill:#F0D2CD;}
	.st3{fill:#AABCBA;}
	.st4{fill:#FDF9F8;}
	.st5{fill:#FFFDEE;}
	.st6{fill:#F2D8D3;}
	.st7{fill:#96AEAC;}
	.st8{fill:#9AB0AF;}
	.st9{fill:#FAEEEC;}
	.st10{fill:#F4DEDA;}
	.st11{fill:#91AAA8;}
	.st12{fill:#F4DED9;}
	.st13{fill:#F1D5D0;}
</style>
<g id="Layer_1">
</g>
<g id="Layer_2">
	<g class="st0">
		<polygon class="st1" points="30.6,425.6 11,406.1 30.6,386.5 		"/>
		<polygon class="st2" points="-8.5,425.6 11,406.1 -8.5,386.5 		"/>
		<polygon class="st3" points="30.6,425.6 11,406.1 -8.5,425.6 		"/>
		<polygon class="st4" points="-8.5,386.5 11,406.1 30.6,386.5 		"/>
		<polygon class="st1" points="69.7,425.6 50.2,406.1 69.7,386.5 		"/>
		<polygon class="st5" points="30.6,425.6 50.2,406.1 30.6,386.5 		"/>
		<polygon class="st6" points="69.7,425.6 50.2,406.1 30.6,425.6 		"/>
		<polygon class="st7" points="30.6,386.5 50.2,406.1 69.7,386.5 		"/>
		<polygon class="st8" points="108.9,425.6 89.3,406.1 108.9,386.5 		"/>
		<polygon class="st2" points="69.7,425.6 89.3,406.1 69.7,386.5 		"/>
		<polygon class="st3" points="108.9,425.6 89.3,406.1 69.7,425.6 		"/>
		<polygon class="st9" points="69.7,386.5 89.3,406.1 108.9,386.5 		"/>
		<polygon class="st1" points="148,425.6 128.4,406.1 148,386.5 		"/>
		<polygon class="st5" points="108.9,425.6 128.4,406.1 108.9,386.5 		"/>
		<polygon class="st6" points="148,425.6 128.4,406.1 108.9,425.6 		"/>
		<polygon class="st7" points="108.9,386.5 128.4,406.1 148,386.5 		"/>
		<polygon class="st1" points="187.1,425.6 167.5,406.1 187.1,386.5 		"/>
		<polygon class="st5" points="148,425.6 167.5,406.1 148,386.5 		"/>
		<polygon class="st6" points="187.1,425.6 167.5,406.1 148,425.6 		"/>
		<polygon class="st4" points="148,386.5 167.5,406.1 187.1,386.5 		"/>
		<polygon class="st1" points="226.2,425.6 206.7,406.1 226.2,386.5 		"/>
		<polygon class="st2" points="187.1,425.6 206.7,406.1 187.1,386.5 		"/>
		<polygon class="st3" points="226.2,425.6 206.7,406.1 187.1,425.6 		"/>
		<polygon class="st4" points="187.1,386.5 206.7,406.1 226.2,386.5 		"/>
		<polygon class="st10" points="265.4,425.6 245.8,406.1 265.4,386.5 		"/>
		<polygon class="st2" points="226.2,425.6 245.8,406.1 226.2,386.5 		"/>
		<polygon class="st6" points="265.4,425.6 245.8,406.1 226.2,425.6 		"/>
		<polygon class="st6" points="226.2,386.5 245.8,406.1 265.4,386.5 		"/>
		<polygon class="st11" points="304.5,425.6 284.9,406.1 304.5,386.5 		"/>
		<polygon class="st2" points="265.4,425.6 284.9,406.1 265.4,386.5 		"/>
		<polygon class="st3" points="304.5,425.6 284.9,406.1 265.4,425.6 		"/>
		<polygon class="st7" points="265.4,386.5 284.9,406.1 304.5,386.5 		"/>
		<polygon class="st11" points="343.6,425.6 324.1,406.1 343.6,386.5 		"/>
		<polygon class="st11" points="304.5,425.6 324.1,406.1 304.5,386.5 		"/>
		<polygon class="st7" points="343.6,425.6 324.1,406.1 304.5,425.6 		"/>
		<polygon class="st11" points="304.5,386.5 324.1,406.1 343.6,386.5 		"/>
		<polygon class="st1" points="382.7,425.6 363.2,406.1 382.7,386.5 		"/>
		<polygon class="st2" points="343.6,425.6 363.2,406.1 343.6,386.5 		"/>
		<polygon class="st3" points="382.7,425.6 363.2,406.1 343.6,425.6 		"/>
		<polygon class="st4" points="343.6,386.5 363.2,406.1 382.7,386.5 		"/>
		<polygon class="st1" points="421.9,425.6 402.3,406.1 421.9,386.5 		"/>
		<polygon class="st5" points="382.7,425.6 402.3,406.1 382.7,386.5 		"/>
		<polygon class="st3" points="421.9,425.6 402.3,406.1 382.7,425.6 		"/>
		<polygon class="st4" points="382.7,386.5 402.3,406.1 421.9,386.5 		"/>
		<polygon class="st1" points="30.6,386.5 11,366.9 30.6,347.4 		"/>
		<polygon class="st2" points="-8.5,386.5 11,366.9 -8.5,347.4 		"/>
		<polygon class="st3" points="30.6,386.5 11,366.9 -8.5,386.5 		"/>
		<polygon class="st7" points="-8.5,347.4 11,366.9 30.6,347.4 		"/>
		<polygon class="st8" points="69.7,386.5 50.2,366.9 69.7,347.4 		"/>
		<polygon class="st2" points="30.6,386.5 50.2,366.9 30.6,347.4 		"/>
		<polygon class="st12" points="69.7,386.5 50.2,366.9 30.6,386.5 		"/>
		<polygon class="st9" points="30.6,347.4 50.2,366.9 69.7,347.4 		"/>
		<polygon class="st1" points="108.9,386.5 89.3,366.9 108.9,347.4 		"/>
		<polygon class="st9" points="69.7,386.5 89.3,366.9 69.7,347.4 		"/>
		<polygon class="st9" points="108.9,386.5 89.3,366.9 69.7,386.5 		"/>
		<polygon class="st4" points="69.7,347.4 89.3,366.9 108.9,347.4 		"/>
		<polygon class="st12" points="148,386.5 128.4,366.9 148,347.4 		"/>
		<polygon class="st12" points="108.9,386.5 128.4,366.9 108.9,347.4 		"/>
		<polygon class="st12" points="148,386.5 128.4,366.9 108.9,386.5 		"/>
		<polygon class="st12" points="108.9,347.4 128.4,366.9 148,347.4 		"/>
		<polygon class="st1" points="187.1,386.5 167.5,366.9 187.1,347.4 		"/>
		<polygon class="st12" points="148,386.5 167.5,366.9 148,347.4 		"/>
		<polygon class="st12" points="187.1,386.5 167.5,366.9 148,386.5 		"/>
		<polygon class="st4" points="148,347.4 167.5,366.9 187.1,347.4 		"/>
		<polygon class="st6" points="226.2,386.5 206.7,366.9 226.2,347.4 		"/>
		<polygon class="st2" points="187.1,386.5 206.7,366.9 187.1,347.4 		"/>
		<polygon class="st9" points="226.2,386.5 206.7,366.9 187.1,386.5 		"/>
		<polygon class="st10" points="187.1,347.4 206.7,366.9 226.2,347.4 		"/>
		<polygon class="st6" points="265.4,386.5 245.8,366.9 265.4,347.4 		"/>
		<polygon class="st10" points="226.2,386.5 245.8,366.9 226.2,347.4 		"/>
		<polygon class="st6" points="265.4,386.5 245.8,366.9 226.2,386.5 		"/>
		<polygon class="st6" points="226.2,347.4 245.8,366.9 265.4,347.4 		"/>
		<polygon class="st1" points="304.5,386.5 284.9,366.9 304.5,347.4 		"/>
		<polygon class="st2" points="265.4,386.5 284.9,366.9 265.4,347.4 		"/>
		<polygon class="st6" points="304.5,386.5 284.9,366.9 265.4,386.5 		"/>
		<polygon class="st4" points="265.4,347.4 284.9,366.9 304.5,347.4 		"/>
		<polygon class="st1" points="343.6,386.5 324.1,366.9 343.6,347.4 		"/>
		<polygon class="st2" points="304.5,386.5 324.1,366.9 304.5,347.4 		"/>
		<polygon class="st3" points="343.6,386.5 324.1,366.9 304.5,386.5 		"/>
		<polygon class="st4" points="304.5,347.4 324.1,366.9 343.6,347.4 		"/>
		<polygon class="st13" points="382.7,386.5 363.2,366.9 382.7,347.4 		"/>
		<polygon class="st5" points="343.6,386.5 363.2,366.9 343.6,347.4 		"/>
		<polygon class="st3" points="382.7,386.5 363.2,366.9 343.6,386.5 		"/>
		<polygon class="st8" points="343.6,347.4 363.2,366.9 382.7,347.4 		"/>
		<polygon class="st6" points="421.9,386.5 402.3,366.9 421.9,347.4 		"/>
		<polygon class="st13" points="382.7,386.5 402.3,366.9 382.7,347.4 		"/>
		<polygon class="st3" points="421.9,386.5 402.3,366.9 382.7,386.5 		"/>
		<polygon class="st4" points="382.7,347.4 402.3,366.9 421.9,347.4 		"/>
		<polygon class="st9" points="30.6,347.4 11,327.8 30.6,308.3 		"/>
		<polygon class="st3" points="-8.5,347.4 11,327.8 -8.5,308.3 		"/>
		<polygon class="st3" points="30.6,347.4 11,327.8 -8.5,347.4 		"/>
		<polygon class="st8" points="-8.5,308.3 11,327.8 30.6,308.3 		"/>
		<polygon class="st1" points="69.7,347.4 50.2,327.8 69.7,308.3 		"/>
		<polygon class="st12" points="30.6,347.4 50.2,327.8 30.6,308.3 		"/>
		<polygon class="st9" points="69.7,347.4 50.2,327.8 30.6,347.4 		"/>
		<polygon class="st12" points="30.6,308.3 50.2,327.8 69.7,308.3 		"/>
		<polygon class="st1" points="108.9,347.4 89.3,327.8 108.9,308.3 		"/>
		<polygon class="st2" points="69.7,347.4 89.3,327.8 69.7,308.3 		"/>
		<polygon class="st2" points="108.9,347.4 89.3,327.8 69.7,347.4 		"/>
		<polygon class="st13" points="69.7,308.3 89.3,327.8 108.9,308.3 		"/>
		<polygon class="st8" points="148,347.4 128.4,327.8 148,308.3 		"/>
		<polygon class="st12" points="108.9,347.4 128.4,327.8 108.9,308.3 		"/>
		<polygon class="st12" points="148,347.4 128.4,327.8 108.9,347.4 		"/>
		<polygon class="st7" points="108.9,308.3 128.4,327.8 148,308.3 		"/>
		<polygon class="st1" points="187.1,347.4 167.5,327.8 187.1,308.3 		"/>
		<polygon class="st9" points="148,347.4 167.5,327.8 148,308.3 		"/>
		<polygon class="st9" points="187.1,347.4 167.5,327.8 148,347.4 		"/>
		<polygon class="st8" points="148,308.3 167.5,327.8 187.1,308.3 		"/>
		<polygon class="st9" points="226.2,347.4 206.7,327.8 226.2,308.3 		"/>
		<polygon class="st2" points="187.1,347.4 206.7,327.8 187.1,308.3 		"/>
		<polygon class="st3" points="226.2,347.4 206.7,327.8 187.1,347.4 		"/>
		<polygon class="st1" points="187.1,308.3 206.7,327.8 226.2,308.3 		"/>
		<polygon class="st1" points="265.4,347.4 245.8,327.8 265.4,308.3 		"/>
		<polygon class="st2" points="226.2,347.4 245.8,327.8 226.2,308.3 		"/>
		<polygon class="st3" points="265.4,347.4 245.8,327.8 226.2,347.4 		"/>
		<polygon class="st4" points="226.2,308.3 245.8,327.8 265.4,308.3 		"/>
		<polygon class="st1" points="304.5,347.4 284.9,327.8 304.5,308.3 		"/>
		<polygon class="st2" points="265.4,347.4 284.9,327.8 265.4,308.3 		"/>
		<polygon class="st3" points="304.5,347.4 284.9,327.8 265.4,347.4 		"/>
		<polygon class="st13" points="265.4,308.3 284.9,327.8 304.5,308.3 		"/>
		<polygon class="st1" points="343.6,347.4 324.1,327.8 343.6,308.3 		"/>
		<polygon class="st2" points="304.5,347.4 324.1,327.8 304.5,308.3 		"/>
		<polygon class="st3" points="343.6,347.4 324.1,327.8 304.5,347.4 		"/>
		<polygon class="st4" points="304.5,308.3 324.1,327.8 343.6,308.3 		"/>
		<polygon class="st1" points="382.7,347.4 363.2,327.8 382.7,308.3 		"/>
		<polygon class="st2" points="343.6,347.4 363.2,327.8 343.6,308.3 		"/>
		<polygon class="st3" points="382.7,347.4 363.2,327.8 343.6,347.4 		"/>
		<polygon class="st8" points="343.6,308.3 363.2,327.8 382.7,308.3 		"/>
		<polygon class="st1" points="421.9,347.4 402.3,327.8 421.9,308.3 		"/>
		<polygon class="st2" points="382.7,347.4 402.3,327.8 382.7,308.3 		"/>
		<polygon class="st3" points="421.9,347.4 402.3,327.8 382.7,347.4 		"/>
		<polygon class="st4" points="382.7,308.3 402.3,327.8 421.9,308.3 		"/>
		<polygon class="st1" points="30.6,308.3 11,288.7 30.6,269.1 		"/>
		<polygon class="st5" points="-8.5,308.3 11,288.7 -8.5,269.1 		"/>
		<polygon class="st3" points="30.6,308.3 11,288.7 -8.5,308.3 		"/>
		<polygon class="st4" points="-8.5,269.1 11,288.7 30.6,269.1 		"/>
		<polygon class="st13" points="69.7,308.3 50.2,288.7 69.7,269.1 		"/>
		<polygon class="st12" points="30.6,308.3 50.2,288.7 30.6,269.1 		"/>
		<polygon class="st12" points="69.7,308.3 50.2,288.7 30.6,308.3 		"/>
		<polygon class="st4" points="30.6,269.1 50.2,288.7 69.7,269.1 		"/>
		<polygon class="st4" points="108.9,308.3 89.3,288.7 108.9,269.1 		"/>
		<polygon class="st2" points="69.7,308.3 89.3,288.7 69.7,269.1 		"/>
		<polygon class="st13" points="108.9,308.3 89.3,288.7 69.7,308.3 		"/>
		<polygon class="st12" points="69.7,269.1 89.3,288.7 108.9,269.1 		"/>
		<polygon class="st3" points="148,308.3 128.4,288.7 148,269.1 		"/>
		<polygon class="st2" points="108.9,308.3 128.4,288.7 108.9,269.1 		"/>
		<polygon class="st3" points="148,308.3 128.4,288.7 108.9,308.3 		"/>
		<polygon class="st4" points="108.9,269.1 128.4,288.7 148,269.1 		"/>
		<polygon class="st1" points="187.1,308.3 167.5,288.7 187.1,269.1 		"/>
		<polygon class="st3" points="148,308.3 167.5,288.7 148,269.1 		"/>
		<polygon class="st3" points="187.1,308.3 167.5,288.7 148,308.3 		"/>
		<polygon class="st1" points="148,269.1 167.5,288.7 187.1,269.1 		"/>
		<polygon class="st1" points="226.2,308.3 206.7,288.7 226.2,269.1 		"/>
		<polygon class="st1" points="187.1,308.3 206.7,288.7 187.1,269.1 		"/>
		<polygon class="st1" points="226.2,308.3 206.7,288.7 187.1,308.3 		"/>
		<polygon class="st1" points="187.1,269.1 206.7,288.7 226.2,269.1 		"/>
		<polygon class="st13" points="265.4,308.3 245.8,288.7 265.4,269.1 		"/>
		<polygon class="st1" points="226.2,308.3 245.8,288.7 226.2,269.1 		"/>
		<polygon class="st7" points="265.4,308.3 245.8,288.7 226.2,308.3 		"/>
		<polygon class="st1" points="226.2,269.1 245.8,288.7 265.4,269.1 		"/>
		<polygon class="st13" points="304.5,308.3 284.9,288.7 304.5,269.1 		"/>
		<polygon class="st13" points="265.4,308.3 284.9,288.7 265.4,269.1 		"/>
		<polygon class="st12" points="304.5,308.3 284.9,288.7 265.4,308.3 		"/>
		<polygon class="st12" points="265.4,269.1 284.9,288.7 304.5,269.1 		"/>
		<polygon class="st1" points="343.6,308.3 324.1,288.7 343.6,269.1 		"/>
		<polygon class="st13" points="304.5,308.3 324.1,288.7 304.5,269.1 		"/>
		<polygon class="st3" points="343.6,308.3 324.1,288.7 304.5,308.3 		"/>
		<polygon class="st13" points="304.5,269.1 324.1,288.7 343.6,269.1 		"/>
		<polygon class="st1" points="382.7,308.3 363.2,288.7 382.7,269.1 		"/>
		<polygon class="st2" points="343.6,308.3 363.2,288.7 343.6,269.1 		"/>
		<polygon class="st3" points="382.7,308.3 363.2,288.7 343.6,308.3 		"/>
		<polygon class="st4" points="343.6,269.1 363.2,288.7 382.7,269.1 		"/>
		<polygon class="st9" points="421.9,308.3 402.3,288.7 421.9,269.1 		"/>
		<polygon class="st2" points="382.7,308.3 402.3,288.7 382.7,269.1 		"/>
		<polygon class="st3" points="421.9,308.3 402.3,288.7 382.7,308.3 		"/>
		<polygon class="st13" points="382.7,269.1 402.3,288.7 421.9,269.1 		"/>
		<polygon class="st1" points="30.6,269.1 11,249.6 30.6,230 		"/>
		<polygon class="st2" points="-8.5,269.1 11,249.6 -8.5,230 		"/>
		<polygon class="st3" points="30.6,269.1 11,249.6 -8.5,269.1 		"/>
		<polygon class="st4" points="-8.5,230 11,249.6 30.6,230 		"/>
		<polygon class="st1" points="69.7,269.1 50.2,249.6 69.7,230 		"/>
		<polygon class="st2" points="30.6,269.1 50.2,249.6 30.6,230 		"/>
		<polygon class="st12" points="69.7,269.1 50.2,249.6 30.6,269.1 		"/>
		<polygon class="st8" points="30.6,230 50.2,249.6 69.7,230 		"/>
		<polygon class="st1" points="108.9,269.1 89.3,249.6 108.9,230 		"/>
		<polygon class="st2" points="69.7,269.1 89.3,249.6 69.7,230 		"/>
		<polygon class="st3" points="108.9,269.1 89.3,249.6 69.7,269.1 		"/>
		<polygon class="st4" points="69.7,230 89.3,249.6 108.9,230 		"/>
		<polygon class="st6" points="148,269.1 128.4,249.6 148,230 		"/>
		<polygon class="st5" points="108.9,269.1 128.4,249.6 108.9,230 		"/>
		<polygon class="st3" points="148,269.1 128.4,249.6 108.9,269.1 		"/>
		<polygon class="st6" points="108.9,230 128.4,249.6 148,230 		"/>
		<polygon class="st3" points="187.1,269.1 167.5,249.6 187.1,230 		"/>
		<polygon class="st6" points="148,269.1 167.5,249.6 148,230 		"/>
		<polygon class="st3" points="187.1,269.1 167.5,249.6 148,269.1 		"/>
		<polygon class="st6" points="148,230 167.5,249.6 187.1,230 		"/>
		<polygon class="st1" points="226.2,269.1 206.7,249.6 226.2,230 		"/>
		<polygon class="st3" points="187.1,269.1 206.7,249.6 187.1,230 		"/>
		<polygon class="st3" points="226.2,269.1 206.7,249.6 187.1,269.1 		"/>
		<polygon class="st4" points="187.1,230 206.7,249.6 226.2,230 		"/>
		<polygon class="st7" points="265.4,269.1 245.8,249.6 265.4,230 		"/>
		<polygon class="st5" points="226.2,269.1 245.8,249.6 226.2,230 		"/>
		<polygon class="st2" points="265.4,269.1 245.8,249.6 226.2,269.1 		"/>
		<polygon class="st3" points="226.2,230 245.8,249.6 265.4,230 		"/>
		<polygon class="st1" points="304.5,269.1 284.9,249.6 304.5,230 		"/>
		<polygon class="st2" points="265.4,269.1 284.9,249.6 265.4,230 		"/>
		<polygon class="st3" points="304.5,269.1 284.9,249.6 265.4,269.1 		"/>
		<polygon class="st4" points="265.4,230 284.9,249.6 304.5,230 		"/>
		<polygon class="st1" points="343.6,269.1 324.1,249.6 343.6,230 		"/>
		<polygon class="st5" points="304.5,269.1 324.1,249.6 304.5,230 		"/>
		<polygon class="st3" points="343.6,269.1 324.1,249.6 304.5,269.1 		"/>
		<polygon class="st9" points="304.5,230 324.1,249.6 343.6,230 		"/>
		<polygon class="st1" points="382.7,269.1 363.2,249.6 382.7,230 		"/>
		<polygon class="st2" points="343.6,269.1 363.2,249.6 343.6,230 		"/>
		<polygon class="st3" points="382.7,269.1 363.2,249.6 343.6,269.1 		"/>
		<polygon class="st9" points="343.6,230 363.2,249.6 382.7,230 		"/>
		<polygon class="st9" points="421.9,269.1 402.3,249.6 421.9,230 		"/>
		<polygon class="st2" points="382.7,269.1 402.3,249.6 382.7,230 		"/>
		<polygon class="st3" points="421.9,269.1 402.3,249.6 382.7,269.1 		"/>
		<polygon class="st4" points="382.7,230 402.3,249.6 421.9,230 		"/>
		<polygon class="st1" points="30.6,230 11,210.4 30.6,190.9 		"/>
		<polygon class="st5" points="-8.5,230 11,210.4 -8.5,190.9 		"/>
		<polygon class="st3" points="30.6,230 11,210.4 -8.5,230 		"/>
		<polygon class="st4" points="-8.5,190.9 11,210.4 30.6,190.9 		"/>
		<polygon class="st1" points="69.7,230 50.2,210.4 69.7,190.9 		"/>
		<polygon class="st7" points="30.6,230 50.2,210.4 30.6,190.9 		"/>
		<polygon class="st3" points="69.7,230 50.2,210.4 30.6,230 		"/>
		<polygon class="st7" points="30.6,190.9 50.2,210.4 69.7,190.9 		"/>
		<polygon class="st7" points="108.9,230 89.3,210.4 108.9,190.9 		"/>
		<polygon class="st2" points="69.7,230 89.3,210.4 69.7,190.9 		"/>
		<polygon class="st7" points="108.9,230 89.3,210.4 69.7,230 		"/>
		<polygon class="st4" points="69.7,190.9 89.3,210.4 108.9,190.9 		"/>
		<polygon class="st1" points="148,230 128.4,210.4 148,190.9 		"/>
		<polygon class="st7" points="108.9,230 128.4,210.4 108.9,190.9 		"/>
		<polygon class="st7" points="148,230 128.4,210.4 108.9,230 		"/>
		<polygon class="st4" points="108.9,190.9 128.4,210.4 148,190.9 		"/>
		<polygon class="st13" points="187.1,230 167.5,210.4 187.1,190.9 		"/>
		<polygon class="st2" points="148,230 167.5,210.4 148,190.9 		"/>
		<polygon class="st9" points="187.1,230 167.5,210.4 148,230 		"/>
		<polygon class="st6" points="148,190.9 167.5,210.4 187.1,190.9 		"/>
		<polygon class="st1" points="226.2,230 206.7,210.4 226.2,190.9 		"/>
		<polygon class="st6" points="187.1,230 206.7,210.4 187.1,190.9 		"/>
		<polygon class="st11" points="226.2,230 206.7,210.4 187.1,230 		"/>
		<polygon class="st6" points="187.1,190.9 206.7,210.4 226.2,190.9 		"/>
		<polygon class="st13" points="265.4,230 245.8,210.4 265.4,190.9 		"/>
		<polygon class="st2" points="226.2,230 245.8,210.4 226.2,190.9 		"/>
		<polygon class="st3" points="265.4,230 245.8,210.4 226.2,230 		"/>
		<polygon class="st4" points="226.2,190.9 245.8,210.4 265.4,190.9 		"/>
		<polygon class="st1" points="304.5,230 284.9,210.4 304.5,190.9 		"/>
		<polygon class="st2" points="265.4,230 284.9,210.4 265.4,190.9 		"/>
		<polygon class="st3" points="304.5,230 284.9,210.4 265.4,230 		"/>
		<polygon class="st4" points="265.4,190.9 284.9,210.4 304.5,190.9 		"/>
		<polygon class="st13" points="343.6,230 324.1,210.4 343.6,190.9 		"/>
		<polygon class="st2" points="304.5,230 324.1,210.4 304.5,190.9 		"/>
		<polygon class="st12" points="343.6,230 324.1,210.4 304.5,230 		"/>
		<polygon class="st4" points="304.5,190.9 324.1,210.4 343.6,190.9 		"/>
		<polygon class="st1" points="382.7,230 363.2,210.4 382.7,190.9 		"/>
		<polygon class="st2" points="343.6,230 363.2,210.4 343.6,190.9 		"/>
		<polygon class="st3" points="382.7,230 363.2,210.4 343.6,230 		"/>
		<polygon class="st8" points="343.6,190.9 363.2,210.4 382.7,190.9 		"/>
		<polygon class="st1" points="421.9,230 402.3,210.4 421.9,190.9 		"/>
		<polygon class="st13" points="382.7,230 402.3,210.4 382.7,190.9 		"/>
		<polygon class="st3" points="421.9,230 402.3,210.4 382.7,230 		"/>
		<polygon class="st4" points="382.7,190.9 402.3,210.4 421.9,190.9 		"/>
		<polygon class="st1" points="30.6,190.9 11,171.3 30.6,151.7 		"/>
		<polygon class="st2" points="-8.5,190.9 11,171.3 -8.5,151.7 		"/>
		<polygon class="st3" points="30.6,190.9 11,171.3 -8.5,190.9 		"/>
		<polygon class="st4" points="-8.5,151.7 11,171.3 30.6,151.7 		"/>
		<polygon class="st1" points="69.7,190.9 50.2,171.3 69.7,151.7 		"/>
		<polygon class="st13" points="30.6,190.9 50.2,171.3 30.6,151.7 		"/>
		<polygon class="st3" points="69.7,190.9 50.2,171.3 30.6,190.9 		"/>
		<polygon class="st4" points="30.6,151.7 50.2,171.3 69.7,151.7 		"/>
		<polygon class="st9" points="108.9,190.9 89.3,171.3 108.9,151.7 		"/>
		<polygon class="st2" points="69.7,190.9 89.3,171.3 69.7,151.7 		"/>
		<polygon class="st6" points="108.9,190.9 89.3,171.3 69.7,190.9 		"/>
		<polygon class="st9" points="69.7,151.7 89.3,171.3 108.9,151.7 		"/>
		<polygon class="st1" points="148,190.9 128.4,171.3 148,151.7 		"/>
		<polygon class="st8" points="108.9,190.9 128.4,171.3 108.9,151.7 		"/>
		<polygon class="st13" points="148,190.9 128.4,171.3 108.9,190.9 		"/>
		<polygon class="st9" points="108.9,151.7 128.4,171.3 148,151.7 		"/>
		<polygon class="st1" points="187.1,190.9 167.5,171.3 187.1,151.7 		"/>
		<polygon class="st2" points="148,190.9 167.5,171.3 148,151.7 		"/>
		<polygon class="st3" points="187.1,190.9 167.5,171.3 148,190.9 		"/>
		<polygon class="st4" points="148,151.7 167.5,171.3 187.1,151.7 		"/>
		<polygon class="st1" points="226.2,190.9 206.7,171.3 226.2,151.7 		"/>
		<polygon class="st2" points="187.1,190.9 206.7,171.3 187.1,151.7 		"/>
		<polygon class="st3" points="226.2,190.9 206.7,171.3 187.1,190.9 		"/>
		<polygon class="st9" points="187.1,151.7 206.7,171.3 226.2,151.7 		"/>
		<polygon class="st1" points="265.4,190.9 245.8,171.3 265.4,151.7 		"/>
		<polygon class="st2" points="226.2,190.9 245.8,171.3 226.2,151.7 		"/>
		<polygon class="st3" points="265.4,190.9 245.8,171.3 226.2,190.9 		"/>
		<polygon class="st3" points="226.2,151.7 245.8,171.3 265.4,151.7 		"/>
		<polygon class="st1" points="304.5,190.9 284.9,171.3 304.5,151.7 		"/>
		<polygon class="st5" points="265.4,190.9 284.9,171.3 265.4,151.7 		"/>
		<polygon class="st3" points="304.5,190.9 284.9,171.3 265.4,190.9 		"/>
		<polygon class="st3" points="265.4,151.7 284.9,171.3 304.5,151.7 		"/>
		<polygon class="st8" points="343.6,190.9 324.1,171.3 343.6,151.7 		"/>
		<polygon class="st12" points="304.5,190.9 324.1,171.3 304.5,151.7 		"/>
		<polygon class="st3" points="343.6,190.9 324.1,171.3 304.5,190.9 		"/>
		<polygon class="st9" points="304.5,151.7 324.1,171.3 343.6,151.7 		"/>
		<polygon class="st1" points="382.7,190.9 363.2,171.3 382.7,151.7 		"/>
		<polygon class="st7" points="343.6,190.9 363.2,171.3 343.6,151.7 		"/>
		<polygon class="st3" points="382.7,190.9 363.2,171.3 343.6,190.9 		"/>
		<polygon class="st6" points="343.6,151.7 363.2,171.3 382.7,151.7 		"/>
		<polygon class="st6" points="421.9,190.9 402.3,171.3 421.9,151.7 		"/>
		<polygon class="st2" points="382.7,190.9 402.3,171.3 382.7,151.7 		"/>
		<polygon class="st3" points="421.9,190.9 402.3,171.3 382.7,190.9 		"/>
		<polygon class="st4" points="382.7,151.7 402.3,171.3 421.9,151.7 		"/>
		<polygon class="st2" points="30.6,151.7 11,132.2 30.6,112.6 		"/>
		<polygon class="st2" points="-8.5,151.7 11,132.2 -8.5,112.6 		"/>
		<polygon class="st12" points="30.6,151.7 11,132.2 -8.5,151.7 		"/>
		<polygon class="st4" points="-8.5,112.6 11,132.2 30.6,112.6 		"/>
		<polygon class="st12" points="69.7,151.7 50.2,132.2 69.7,112.6 		"/>
		<polygon class="st13" points="30.6,151.7 50.2,132.2 30.6,112.6 		"/>
		<polygon class="st12" points="69.7,151.7 50.2,132.2 30.6,151.7 		"/>
		<polygon class="st6" points="30.6,112.6 50.2,132.2 69.7,112.6 		"/>
		<polygon class="st2" points="108.9,151.7 89.3,132.2 108.9,112.6 		"/>
		<polygon class="st6" points="69.7,151.7 89.3,132.2 69.7,112.6 		"/>
		<polygon class="st6" points="108.9,151.7 89.3,132.2 69.7,151.7 		"/>
		<polygon class="st12" points="69.7,112.6 89.3,132.2 108.9,112.6 		"/>
		<polygon class="st12" points="148,151.7 128.4,132.2 148,112.6 		"/>
		<polygon class="st2" points="108.9,151.7 128.4,132.2 108.9,112.6 		"/>
		<polygon class="st2" points="148,151.7 128.4,132.2 108.9,151.7 		"/>
		<polygon class="st12" points="108.9,112.6 128.4,132.2 148,112.6 		"/>
		<polygon class="st3" points="187.1,151.7 167.5,132.2 187.1,112.6 		"/>
		<polygon class="st12" points="148,151.7 167.5,132.2 148,112.6 		"/>
		<polygon class="st6" points="187.1,151.7 167.5,132.2 148,151.7 		"/>
		<polygon class="st3" points="148,112.6 167.5,132.2 187.1,112.6 		"/>
		<polygon class="st3" points="226.2,151.7 206.7,132.2 226.2,112.6 		"/>
		<polygon class="st2" points="187.1,151.7 206.7,132.2 187.1,112.6 		"/>
		<polygon class="st3" points="226.2,151.7 206.7,132.2 187.1,151.7 		"/>
		<polygon class="st4" points="187.1,112.6 206.7,132.2 226.2,112.6 		"/>
		<polygon class="st1" points="265.4,151.7 245.8,132.2 265.4,112.6 		"/>
		<polygon class="st3" points="226.2,151.7 245.8,132.2 226.2,112.6 		"/>
		<polygon class="st3" points="265.4,151.7 245.8,132.2 226.2,151.7 		"/>
		<polygon class="st6" points="226.2,112.6 245.8,132.2 265.4,112.6 		"/>
		<polygon class="st1" points="304.5,151.7 284.9,132.2 304.5,112.6 		"/>
		<polygon class="st2" points="265.4,151.7 284.9,132.2 265.4,112.6 		"/>
		<polygon class="st3" points="304.5,151.7 284.9,132.2 265.4,151.7 		"/>
		<polygon class="st8" points="265.4,112.6 284.9,132.2 304.5,112.6 		"/>
		<polygon class="st1" points="343.6,151.7 324.1,132.2 343.6,112.6 		"/>
		<polygon class="st8" points="304.5,151.7 324.1,132.2 304.5,112.6 		"/>
		<polygon class="st8" points="343.6,151.7 324.1,132.2 304.5,151.7 		"/>
		<polygon class="st4" points="304.5,112.6 324.1,132.2 343.6,112.6 		"/>
		<polygon class="st12" points="382.7,151.7 363.2,132.2 382.7,112.6 		"/>
		<polygon class="st7" points="343.6,151.7 363.2,132.2 343.6,112.6 		"/>
		<polygon class="st13" points="382.7,151.7 363.2,132.2 343.6,151.7 		"/>
		<polygon class="st4" points="343.6,112.6 363.2,132.2 382.7,112.6 		"/>
		<polygon class="st12" points="421.9,151.7 402.3,132.2 421.9,112.6 		"/>
		<polygon class="st12" points="382.7,151.7 402.3,132.2 382.7,112.6 		"/>
		<polygon class="st6" points="421.9,151.7 402.3,132.2 382.7,151.7 		"/>
		<polygon class="st2" points="382.7,112.6 402.3,132.2 421.9,112.6 		"/>
		<polygon class="st1" points="30.6,112.6 11,93.1 30.6,73.5 		"/>
		<polygon class="st3" points="-8.5,112.6 11,93.1 -8.5,73.5 		"/>
		<polygon class="st3" points="30.6,112.6 11,93.1 -8.5,112.6 		"/>
		<polygon class="st4" points="-8.5,73.5 11,93.1 30.6,73.5 		"/>
		<polygon class="st13" points="69.7,112.6 50.2,93.1 69.7,73.5 		"/>
		<polygon class="st5" points="30.6,112.6 50.2,93.1 30.6,73.5 		"/>
		<polygon class="st2" points="69.7,112.6 50.2,93.1 30.6,112.6 		"/>
		<polygon class="st4" points="30.6,73.5 50.2,93.1 69.7,73.5 		"/>
		<polygon class="st13" points="108.9,112.6 89.3,93.1 108.9,73.5 		"/>
		<polygon class="st13" points="69.7,112.6 89.3,93.1 69.7,73.5 		"/>
		<polygon class="st13" points="108.9,112.6 89.3,93.1 69.7,112.6 		"/>
		<polygon class="st2" points="69.7,73.5 89.3,93.1 108.9,73.5 		"/>
		<polygon class="st3" points="148,112.6 128.4,93.1 148,73.5 		"/>
		<polygon class="st13" points="108.9,112.6 128.4,93.1 108.9,73.5 		"/>
		<polygon class="st2" points="148,112.6 128.4,93.1 108.9,112.6 		"/>
		<polygon class="st3" points="108.9,73.5 128.4,93.1 148,73.5 		"/>
		<polygon class="st3" points="187.1,112.6 167.5,93.1 187.1,73.5 		"/>
		<polygon class="st3" points="148,112.6 167.5,93.1 148,73.5 		"/>
		<polygon class="st3" points="187.1,112.6 167.5,93.1 148,112.6 		"/>
		<polygon class="st3" points="148,73.5 167.5,93.1 187.1,73.5 		"/>
		<polygon class="st1" points="226.2,112.6 206.7,93.1 226.2,73.5 		"/>
		<polygon class="st2" points="187.1,112.6 206.7,93.1 187.1,73.5 		"/>
		<polygon class="st3" points="226.2,112.6 206.7,93.1 187.1,112.6 		"/>
		<polygon class="st4" points="187.1,73.5 206.7,93.1 226.2,73.5 		"/>
		<polygon class="st1" points="265.4,112.6 245.8,93.1 265.4,73.5 		"/>
		<polygon class="st2" points="226.2,112.6 245.8,93.1 226.2,73.5 		"/>
		<polygon class="st3" points="265.4,112.6 245.8,93.1 226.2,112.6 		"/>
		<polygon class="st8" points="226.2,73.5 245.8,93.1 265.4,73.5 		"/>
		<polygon class="st1" points="304.5,112.6 284.9,93.1 304.5,73.5 		"/>
		<polygon class="st5" points="265.4,112.6 284.9,93.1 265.4,73.5 		"/>
		<polygon class="st3" points="304.5,112.6 284.9,93.1 265.4,112.6 		"/>
		<polygon class="st13" points="265.4,73.5 284.9,93.1 304.5,73.5 		"/>
		<polygon class="st1" points="343.6,112.6 324.1,93.1 343.6,73.5 		"/>
		<polygon class="st13" points="304.5,112.6 324.1,93.1 304.5,73.5 		"/>
		<polygon class="st12" points="343.6,112.6 324.1,93.1 304.5,112.6 		"/>
		<polygon class="st9" points="304.5,73.5 324.1,93.1 343.6,73.5 		"/>
		<polygon class="st1" points="382.7,112.6 363.2,93.1 382.7,73.5 		"/>
		<polygon class="st2" points="343.6,112.6 363.2,93.1 343.6,73.5 		"/>
		<polygon class="st3" points="382.7,112.6 363.2,93.1 343.6,112.6 		"/>
		<polygon class="st1" points="343.6,73.5 363.2,93.1 382.7,73.5 		"/>
		<polygon class="st12" points="421.9,112.6 402.3,93.1 421.9,73.5 		"/>
		<polygon class="st5" points="382.7,112.6 402.3,93.1 382.7,73.5 		"/>
		<polygon class="st12" points="421.9,112.6 402.3,93.1 382.7,112.6 		"/>
		<polygon class="st4" points="382.7,73.5 402.3,93.1 421.9,73.5 		"/>
		<polygon class="st1" points="30.6,73.5 11,53.9 30.6,34.4 		"/>
		<polygon class="st2" points="-8.5,73.5 11,53.9 -8.5,34.4 		"/>
		<polygon class="st3" points="30.6,73.5 11,53.9 -8.5,73.5 		"/>
		<polygon class="st4" points="-8.5,34.4 11,53.9 30.6,34.4 		"/>
		<polygon class="st1" points="69.7,73.5 50.2,53.9 69.7,34.4 		"/>
		<polygon class="st5" points="30.6,73.5 50.2,53.9 30.6,34.4 		"/>
		<polygon class="st3" points="69.7,73.5 50.2,53.9 30.6,73.5 		"/>
		<polygon class="st4" points="30.6,34.4 50.2,53.9 69.7,34.4 		"/>
		<polygon class="st1" points="108.9,73.5 89.3,53.9 108.9,34.4 		"/>
		<polygon class="st2" points="69.7,73.5 89.3,53.9 69.7,34.4 		"/>
		<polygon class="st13" points="108.9,73.5 89.3,53.9 69.7,73.5 		"/>
		<polygon class="st4" points="69.7,34.4 89.3,53.9 108.9,34.4 		"/>
		<polygon class="st1" points="148,73.5 128.4,53.9 148,34.4 		"/>
		<polygon class="st2" points="108.9,73.5 128.4,53.9 108.9,34.4 		"/>
		<polygon class="st7" points="148,73.5 128.4,53.9 108.9,73.5 		"/>
		<polygon class="st4" points="108.9,34.4 128.4,53.9 148,34.4 		"/>
		<polygon class="st1" points="187.1,73.5 167.5,53.9 187.1,34.4 		"/>
		<polygon class="st2" points="148,73.5 167.5,53.9 148,34.4 		"/>
		<polygon class="st6" points="187.1,73.5 167.5,53.9 148,73.5 		"/>
		<polygon class="st4" points="148,34.4 167.5,53.9 187.1,34.4 		"/>
		<polygon class="st1" points="226.2,73.5 206.7,53.9 226.2,34.4 		"/>
		<polygon class="st2" points="187.1,73.5 206.7,53.9 187.1,34.4 		"/>
		<polygon class="st6" points="226.2,73.5 206.7,53.9 187.1,73.5 		"/>
		<polygon class="st4" points="187.1,34.4 206.7,53.9 226.2,34.4 		"/>
		<polygon class="st1" points="265.4,73.5 245.8,53.9 265.4,34.4 		"/>
		<polygon class="st3" points="226.2,73.5 245.8,53.9 226.2,34.4 		"/>
		<polygon class="st3" points="265.4,73.5 245.8,53.9 226.2,73.5 		"/>
		<polygon class="st4" points="226.2,34.4 245.8,53.9 265.4,34.4 		"/>
		<polygon class="st7" points="304.5,73.5 284.9,53.9 304.5,34.4 		"/>
		<polygon class="st2" points="265.4,73.5 284.9,53.9 265.4,34.4 		"/>
		<polygon class="st3" points="304.5,73.5 284.9,53.9 265.4,73.5 		"/>
		<polygon class="st9" points="265.4,34.4 284.9,53.9 304.5,34.4 		"/>
		<polygon class="st9" points="343.6,73.5 324.1,53.9 343.6,34.4 		"/>
		<polygon class="st9" points="304.5,73.5 324.1,53.9 304.5,34.4 		"/>
		<polygon class="st8" points="343.6,73.5 324.1,53.9 304.5,73.5 		"/>
		<polygon class="st9" points="304.5,34.4 324.1,53.9 343.6,34.4 		"/>
		<polygon class="st1" points="382.7,73.5 363.2,53.9 382.7,34.4 		"/>
		<polygon class="st9" points="343.6,73.5 363.2,53.9 343.6,34.4 		"/>
		<polygon class="st1" points="382.7,73.5 363.2,53.9 343.6,73.5 		"/>
		<polygon class="st8" points="343.6,34.4 363.2,53.9 382.7,34.4 		"/>
		<polygon class="st1" points="421.9,73.5 402.3,53.9 421.9,34.4 		"/>
		<polygon class="st5" points="382.7,73.5 402.3,53.9 382.7,34.4 		"/>
		<polygon class="st3" points="421.9,73.5 402.3,53.9 382.7,73.5 		"/>
		<polygon class="st4" points="382.7,34.4 402.3,53.9 421.9,34.4 		"/>
		<polygon class="st1" points="30.6,34.4 11,14.8 30.6,-4.8 		"/>
		<polygon class="st2" points="-8.5,34.4 11,14.8 -8.5,-4.8 		"/>
		<polygon class="st3" points="30.6,34.4 11,14.8 -8.5,34.4 		"/>
		<polygon class="st4" points="-8.5,-4.8 11,14.8 30.6,-4.8 		"/>
		<polygon class="st4" points="69.7,34.4 50.2,14.8 69.7,-4.8 		"/>
		<polygon class="st2" points="30.6,34.4 50.2,14.8 30.6,-4.8 		"/>
		<polygon class="st3" points="69.7,34.4 50.2,14.8 30.6,34.4 		"/>
		<polygon class="st4" points="30.6,-4.8 50.2,14.8 69.7,-4.8 		"/>
		<polygon class="st4" points="108.9,34.4 89.3,14.8 108.9,-4.8 		"/>
		<polygon class="st4" points="69.7,34.4 89.3,14.8 69.7,-4.8 		"/>
		<polygon class="st6" points="108.9,34.4 89.3,14.8 69.7,34.4 		"/>
		<polygon class="st6" points="69.7,-4.8 89.3,14.8 108.9,-4.8 		"/>
		<polygon class="st1" points="148,34.4 128.4,14.8 148,-4.8 		"/>
		<polygon class="st4" points="108.9,34.4 128.4,14.8 108.9,-4.8 		"/>
		<polygon class="st3" points="148,34.4 128.4,14.8 108.9,34.4 		"/>
		<polygon class="st4" points="108.9,-4.8 128.4,14.8 148,-4.8 		"/>
		<polygon class="st1" points="187.1,34.4 167.5,14.8 187.1,-4.8 		"/>
		<polygon class="st2" points="148,34.4 167.5,14.8 148,-4.8 		"/>
		<polygon class="st3" points="187.1,34.4 167.5,14.8 148,34.4 		"/>
		<polygon class="st1" points="148,-4.8 167.5,14.8 187.1,-4.8 		"/>
		<polygon class="st1" points="226.2,34.4 206.7,14.8 226.2,-4.8 		"/>
		<polygon class="st5" points="187.1,34.4 206.7,14.8 187.1,-4.8 		"/>
		<polygon class="st3" points="226.2,34.4 206.7,14.8 187.1,34.4 		"/>
		<polygon class="st9" points="187.1,-4.8 206.7,14.8 226.2,-4.8 		"/>
		<polygon class="st1" points="265.4,34.4 245.8,14.8 265.4,-4.8 		"/>
		<polygon class="st2" points="226.2,34.4 245.8,14.8 226.2,-4.8 		"/>
		<polygon class="st3" points="265.4,34.4 245.8,14.8 226.2,34.4 		"/>
		<polygon class="st9" points="226.2,-4.8 245.8,14.8 265.4,-4.8 		"/>
		<polygon class="st1" points="304.5,34.4 284.9,14.8 304.5,-4.8 		"/>
		<polygon class="st2" points="265.4,34.4 284.9,14.8 265.4,-4.8 		"/>
		<polygon class="st3" points="304.5,34.4 284.9,14.8 265.4,34.4 		"/>
		<polygon class="st8" points="265.4,-4.8 284.9,14.8 304.5,-4.8 		"/>
		<polygon class="st1" points="343.6,34.4 324.1,14.8 343.6,-4.8 		"/>
		<polygon class="st11" points="304.5,34.4 324.1,14.8 304.5,-4.8 		"/>
		<polygon class="st3" points="343.6,34.4 324.1,14.8 304.5,34.4 		"/>
		<polygon class="st11" points="304.5,-4.8 324.1,14.8 343.6,-4.8 		"/>
		<polygon class="st1" points="382.7,34.4 363.2,14.8 382.7,-4.8 		"/>
		<polygon class="st7" points="343.6,34.4 363.2,14.8 343.6,-4.8 		"/>
		<polygon class="st3" points="382.7,34.4 363.2,14.8 343.6,34.4 		"/>
		<polygon class="st9" points="343.6,-4.8 363.2,14.8 382.7,-4.8 		"/>
		<polygon class="st1" points="421.9,34.4 402.3,14.8 421.9,-4.8 		"/>
		<polygon class="st2" points="382.7,34.4 402.3,14.8 382.7,-4.8 		"/>
		<polygon class="st3" points="421.9,34.4 402.3,14.8 382.7,34.4 		"/>
		<polygon class="st4" points="382.7,-4.8 402.3,14.8 421.9,-4.8 		"/>
		<polygon class="st1" points="461,425.6 441.4,406.1 461,386.5 		"/>
		<polygon class="st2" points="421.9,425.6 441.4,406.1 421.9,386.5 		"/>
		<polygon class="st3" points="461,425.6 441.4,406.1 421.9,425.6 		"/>
		<polygon class="st4" points="421.9,386.5 441.4,406.1 461,386.5 		"/>
		<polygon class="st1" points="500.1,425.6 480.6,406.1 500.1,386.5 		"/>
		<polygon class="st5" points="461,425.6 480.6,406.1 461,386.5 		"/>
		<polygon class="st6" points="500.1,425.6 480.6,406.1 461,425.6 		"/>
		<polygon class="st7" points="461,386.5 480.6,406.1 500.1,386.5 		"/>
		<polygon class="st8" points="539.3,425.6 519.7,406.1 539.3,386.5 		"/>
		<polygon class="st2" points="500.1,425.6 519.7,406.1 500.1,386.5 		"/>
		<polygon class="st3" points="539.3,425.6 519.7,406.1 500.1,425.6 		"/>
		<polygon class="st9" points="500.1,386.5 519.7,406.1 539.3,386.5 		"/>
		<polygon class="st1" points="578.4,425.6 558.8,406.1 578.4,386.5 		"/>
		<polygon class="st5" points="539.3,425.6 558.8,406.1 539.3,386.5 		"/>
		<polygon class="st6" points="578.4,425.6 558.8,406.1 539.3,425.6 		"/>
		<polygon class="st7" points="539.3,386.5 558.8,406.1 578.4,386.5 		"/>
		<polygon class="st1" points="617.5,425.6 597.9,406.1 617.5,386.5 		"/>
		<polygon class="st5" points="578.4,425.6 597.9,406.1 578.4,386.5 		"/>
		<polygon class="st6" points="617.5,425.6 597.9,406.1 578.4,425.6 		"/>
		<polygon class="st4" points="578.4,386.5 597.9,406.1 617.5,386.5 		"/>
		<polygon class="st1" points="656.6,425.6 637.1,406.1 656.6,386.5 		"/>
		<polygon class="st2" points="617.5,425.6 637.1,406.1 617.5,386.5 		"/>
		<polygon class="st3" points="656.6,425.6 637.1,406.1 617.5,425.6 		"/>
		<polygon class="st4" points="617.5,386.5 637.1,406.1 656.6,386.5 		"/>
		<polygon class="st10" points="695.8,425.6 676.2,406.1 695.8,386.5 		"/>
		<polygon class="st2" points="656.6,425.6 676.2,406.1 656.6,386.5 		"/>
		<polygon class="st6" points="695.8,425.6 676.2,406.1 656.6,425.6 		"/>
		<polygon class="st6" points="656.6,386.5 676.2,406.1 695.8,386.5 		"/>
		<polygon class="st11" points="734.9,425.6 715.3,406.1 734.9,386.5 		"/>
		<polygon class="st2" points="695.8,425.6 715.3,406.1 695.8,386.5 		"/>
		<polygon class="st3" points="734.9,425.6 715.3,406.1 695.8,425.6 		"/>
		<polygon class="st7" points="695.8,386.5 715.3,406.1 734.9,386.5 		"/>
		<polygon class="st11" points="774,425.6 754.5,406.1 774,386.5 		"/>
		<polygon class="st11" points="734.9,425.6 754.5,406.1 734.9,386.5 		"/>
		<polygon class="st7" points="774,425.6 754.5,406.1 734.9,425.6 		"/>
		<polygon class="st11" points="734.9,386.5 754.5,406.1 774,386.5 		"/>
		<polygon class="st1" points="813.1,425.6 793.6,406.1 813.1,386.5 		"/>
		<polygon class="st2" points="774,425.6 793.6,406.1 774,386.5 		"/>
		<polygon class="st3" points="813.1,425.6 793.6,406.1 774,425.6 		"/>
		<polygon class="st4" points="774,386.5 793.6,406.1 813.1,386.5 		"/>
		<polygon class="st1" points="852.3,425.6 832.7,406.1 852.3,386.5 		"/>
		<polygon class="st5" points="813.1,425.6 832.7,406.1 813.1,386.5 		"/>
		<polygon class="st3" points="852.3,425.6 832.7,406.1 813.1,425.6 		"/>
		<polygon class="st4" points="813.1,386.5 832.7,406.1 852.3,386.5 		"/>
		<polygon class="st1" points="461,386.5 441.4,366.9 461,347.4 		"/>
		<polygon class="st2" points="421.9,386.5 441.4,366.9 421.9,347.4 		"/>
		<polygon class="st3" points="461,386.5 441.4,366.9 421.9,386.5 		"/>
		<polygon class="st7" points="421.9,347.4 441.4,366.9 461,347.4 		"/>
		<polygon class="st8" points="500.1,386.5 480.6,366.9 500.1,347.4 		"/>
		<polygon class="st2" points="461,386.5 480.6,366.9 461,347.4 		"/>
		<polygon class="st12" points="500.1,386.5 480.6,366.9 461,386.5 		"/>
		<polygon class="st9" points="461,347.4 480.6,366.9 500.1,347.4 		"/>
		<polygon class="st1" points="539.3,386.5 519.7,366.9 539.3,347.4 		"/>
		<polygon class="st9" points="500.1,386.5 519.7,366.9 500.1,347.4 		"/>
		<polygon class="st9" points="539.3,386.5 519.7,366.9 500.1,386.5 		"/>
		<polygon class="st4" points="500.1,347.4 519.7,366.9 539.3,347.4 		"/>
		<polygon class="st12" points="578.4,386.5 558.8,366.9 578.4,347.4 		"/>
		<polygon class="st12" points="539.3,386.5 558.8,366.9 539.3,347.4 		"/>
		<polygon class="st12" points="578.4,386.5 558.8,366.9 539.3,386.5 		"/>
		<polygon class="st12" points="539.3,347.4 558.8,366.9 578.4,347.4 		"/>
		<polygon class="st1" points="617.5,386.5 597.9,366.9 617.5,347.4 		"/>
		<polygon class="st12" points="578.4,386.5 597.9,366.9 578.4,347.4 		"/>
		<polygon class="st12" points="617.5,386.5 597.9,366.9 578.4,386.5 		"/>
		<polygon class="st4" points="578.4,347.4 597.9,366.9 617.5,347.4 		"/>
		<polygon class="st6" points="656.6,386.5 637.1,366.9 656.6,347.4 		"/>
		<polygon class="st2" points="617.5,386.5 637.1,366.9 617.5,347.4 		"/>
		<polygon class="st9" points="656.6,386.5 637.1,366.9 617.5,386.5 		"/>
		<polygon class="st10" points="617.5,347.4 637.1,366.9 656.6,347.4 		"/>
		<polygon class="st6" points="695.8,386.5 676.2,366.9 695.8,347.4 		"/>
		<polygon class="st10" points="656.6,386.5 676.2,366.9 656.6,347.4 		"/>
		<polygon class="st6" points="695.8,386.5 676.2,366.9 656.6,386.5 		"/>
		<polygon class="st6" points="656.6,347.4 676.2,366.9 695.8,347.4 		"/>
		<polygon class="st1" points="734.9,386.5 715.3,366.9 734.9,347.4 		"/>
		<polygon class="st2" points="695.8,386.5 715.3,366.9 695.8,347.4 		"/>
		<polygon class="st6" points="734.9,386.5 715.3,366.9 695.8,386.5 		"/>
		<polygon class="st4" points="695.8,347.4 715.3,366.9 734.9,347.4 		"/>
		<polygon class="st1" points="774,386.5 754.5,366.9 774,347.4 		"/>
		<polygon class="st2" points="734.9,386.5 754.5,366.9 734.9,347.4 		"/>
		<polygon class="st3" points="774,386.5 754.5,366.9 734.9,386.5 		"/>
		<polygon class="st4" points="734.9,347.4 754.5,366.9 774,347.4 		"/>
		<polygon class="st13" points="813.1,386.5 793.6,366.9 813.1,347.4 		"/>
		<polygon class="st5" points="774,386.5 793.6,366.9 774,347.4 		"/>
		<polygon class="st3" points="813.1,386.5 793.6,366.9 774,386.5 		"/>
		<polygon class="st8" points="774,347.4 793.6,366.9 813.1,347.4 		"/>
		<polygon class="st6" points="852.3,386.5 832.7,366.9 852.3,347.4 		"/>
		<polygon class="st13" points="813.1,386.5 832.7,366.9 813.1,347.4 		"/>
		<polygon class="st3" points="852.3,386.5 832.7,366.9 813.1,386.5 		"/>
		<polygon class="st4" points="813.1,347.4 832.7,366.9 852.3,347.4 		"/>
		<polygon class="st9" points="461,347.4 441.4,327.8 461,308.3 		"/>
		<polygon class="st3" points="421.9,347.4 441.4,327.8 421.9,308.3 		"/>
		<polygon class="st3" points="461,347.4 441.4,327.8 421.9,347.4 		"/>
		<polygon class="st8" points="421.9,308.3 441.4,327.8 461,308.3 		"/>
		<polygon class="st1" points="500.1,347.4 480.6,327.8 500.1,308.3 		"/>
		<polygon class="st12" points="461,347.4 480.6,327.8 461,308.3 		"/>
		<polygon class="st9" points="500.1,347.4 480.6,327.8 461,347.4 		"/>
		<polygon class="st12" points="461,308.3 480.6,327.8 500.1,308.3 		"/>
		<polygon class="st1" points="539.3,347.4 519.7,327.8 539.3,308.3 		"/>
		<polygon class="st2" points="500.1,347.4 519.7,327.8 500.1,308.3 		"/>
		<polygon class="st2" points="539.3,347.4 519.7,327.8 500.1,347.4 		"/>
		<polygon class="st13" points="500.1,308.3 519.7,327.8 539.3,308.3 		"/>
		<polygon class="st8" points="578.4,347.4 558.8,327.8 578.4,308.3 		"/>
		<polygon class="st12" points="539.3,347.4 558.8,327.8 539.3,308.3 		"/>
		<polygon class="st12" points="578.4,347.4 558.8,327.8 539.3,347.4 		"/>
		<polygon class="st7" points="539.3,308.3 558.8,327.8 578.4,308.3 		"/>
		<polygon class="st1" points="617.5,347.4 597.9,327.8 617.5,308.3 		"/>
		<polygon class="st9" points="578.4,347.4 597.9,327.8 578.4,308.3 		"/>
		<polygon class="st9" points="617.5,347.4 597.9,327.8 578.4,347.4 		"/>
		<polygon class="st8" points="578.4,308.3 597.9,327.8 617.5,308.3 		"/>
		<polygon class="st9" points="656.6,347.4 637.1,327.8 656.6,308.3 		"/>
		<polygon class="st2" points="617.5,347.4 637.1,327.8 617.5,308.3 		"/>
		<polygon class="st3" points="656.6,347.4 637.1,327.8 617.5,347.4 		"/>
		<polygon class="st1" points="617.5,308.3 637.1,327.8 656.6,308.3 		"/>
		<polygon class="st1" points="695.8,347.4 676.2,327.8 695.8,308.3 		"/>
		<polygon class="st2" points="656.6,347.4 676.2,327.8 656.6,308.3 		"/>
		<polygon class="st3" points="695.8,347.4 676.2,327.8 656.6,347.4 		"/>
		<polygon class="st4" points="656.6,308.3 676.2,327.8 695.8,308.3 		"/>
		<polygon class="st1" points="734.9,347.4 715.3,327.8 734.9,308.3 		"/>
		<polygon class="st2" points="695.8,347.4 715.3,327.8 695.8,308.3 		"/>
		<polygon class="st3" points="734.9,347.4 715.3,327.8 695.8,347.4 		"/>
		<polygon class="st13" points="695.8,308.3 715.3,327.8 734.9,308.3 		"/>
		<polygon class="st1" points="774,347.4 754.5,327.8 774,308.3 		"/>
		<polygon class="st2" points="734.9,347.4 754.5,327.8 734.9,308.3 		"/>
		<polygon class="st3" points="774,347.4 754.5,327.8 734.9,347.4 		"/>
		<polygon class="st4" points="734.9,308.3 754.5,327.8 774,308.3 		"/>
		<polygon class="st1" points="813.1,347.4 793.6,327.8 813.1,308.3 		"/>
		<polygon class="st2" points="774,347.4 793.6,327.8 774,308.3 		"/>
		<polygon class="st3" points="813.1,347.4 793.6,327.8 774,347.4 		"/>
		<polygon class="st8" points="774,308.3 793.6,327.8 813.1,308.3 		"/>
		<polygon class="st1" points="852.3,347.4 832.7,327.8 852.3,308.3 		"/>
		<polygon class="st2" points="813.1,347.4 832.7,327.8 813.1,308.3 		"/>
		<polygon class="st3" points="852.3,347.4 832.7,327.8 813.1,347.4 		"/>
		<polygon class="st4" points="813.1,308.3 832.7,327.8 852.3,308.3 		"/>
		<polygon class="st1" points="461,308.3 441.4,288.7 461,269.1 		"/>
		<polygon class="st5" points="421.9,308.3 441.4,288.7 421.9,269.1 		"/>
		<polygon class="st3" points="461,308.3 441.4,288.7 421.9,308.3 		"/>
		<polygon class="st4" points="421.9,269.1 441.4,288.7 461,269.1 		"/>
		<polygon class="st13" points="500.1,308.3 480.6,288.7 500.1,269.1 		"/>
		<polygon class="st12" points="461,308.3 480.6,288.7 461,269.1 		"/>
		<polygon class="st12" points="500.1,308.3 480.6,288.7 461,308.3 		"/>
		<polygon class="st4" points="461,269.1 480.6,288.7 500.1,269.1 		"/>
		<polygon class="st4" points="539.3,308.3 519.7,288.7 539.3,269.1 		"/>
		<polygon class="st2" points="500.1,308.3 519.7,288.7 500.1,269.1 		"/>
		<polygon class="st13" points="539.3,308.3 519.7,288.7 500.1,308.3 		"/>
		<polygon class="st12" points="500.1,269.1 519.7,288.7 539.3,269.1 		"/>
		<polygon class="st3" points="578.4,308.3 558.8,288.7 578.4,269.1 		"/>
		<polygon class="st2" points="539.3,308.3 558.8,288.7 539.3,269.1 		"/>
		<polygon class="st3" points="578.4,308.3 558.8,288.7 539.3,308.3 		"/>
		<polygon class="st4" points="539.3,269.1 558.8,288.7 578.4,269.1 		"/>
		<polygon class="st1" points="617.5,308.3 597.9,288.7 617.5,269.1 		"/>
		<polygon class="st3" points="578.4,308.3 597.9,288.7 578.4,269.1 		"/>
		<polygon class="st3" points="617.5,308.3 597.9,288.7 578.4,308.3 		"/>
		<polygon class="st1" points="578.4,269.1 597.9,288.7 617.5,269.1 		"/>
		<polygon class="st1" points="656.6,308.3 637.1,288.7 656.6,269.1 		"/>
		<polygon class="st1" points="617.5,308.3 637.1,288.7 617.5,269.1 		"/>
		<polygon class="st1" points="656.6,308.3 637.1,288.7 617.5,308.3 		"/>
		<polygon class="st1" points="617.5,269.1 637.1,288.7 656.6,269.1 		"/>
		<polygon class="st13" points="695.8,308.3 676.2,288.7 695.8,269.1 		"/>
		<polygon class="st1" points="656.6,308.3 676.2,288.7 656.6,269.1 		"/>
		<polygon class="st7" points="695.8,308.3 676.2,288.7 656.6,308.3 		"/>
		<polygon class="st1" points="656.6,269.1 676.2,288.7 695.8,269.1 		"/>
		<polygon class="st13" points="734.9,308.3 715.3,288.7 734.9,269.1 		"/>
		<polygon class="st13" points="695.8,308.3 715.3,288.7 695.8,269.1 		"/>
		<polygon class="st12" points="734.9,308.3 715.3,288.7 695.8,308.3 		"/>
		<polygon class="st12" points="695.8,269.1 715.3,288.7 734.9,269.1 		"/>
		<polygon class="st1" points="774,308.3 754.5,288.7 774,269.1 		"/>
		<polygon class="st13" points="734.9,308.3 754.5,288.7 734.9,269.1 		"/>
		<polygon class="st3" points="774,308.3 754.5,288.7 734.9,308.3 		"/>
		<polygon class="st13" points="734.9,269.1 754.5,288.7 774,269.1 		"/>
		<polygon class="st1" points="813.1,308.3 793.6,288.7 813.1,269.1 		"/>
		<polygon class="st2" points="774,308.3 793.6,288.7 774,269.1 		"/>
		<polygon class="st3" points="813.1,308.3 793.6,288.7 774,308.3 		"/>
		<polygon class="st4" points="774,269.1 793.6,288.7 813.1,269.1 		"/>
		<polygon class="st9" points="852.3,308.3 832.7,288.7 852.3,269.1 		"/>
		<polygon class="st2" points="813.1,308.3 832.7,288.7 813.1,269.1 		"/>
		<polygon class="st3" points="852.3,308.3 832.7,288.7 813.1,308.3 		"/>
		<polygon class="st13" points="813.1,269.1 832.7,288.7 852.3,269.1 		"/>
		<polygon class="st1" points="461,269.1 441.4,249.6 461,230 		"/>
		<polygon class="st2" points="421.9,269.1 441.4,249.6 421.9,230 		"/>
		<polygon class="st3" points="461,269.1 441.4,249.6 421.9,269.1 		"/>
		<polygon class="st4" points="421.9,230 441.4,249.6 461,230 		"/>
		<polygon class="st1" points="500.1,269.1 480.6,249.6 500.1,230 		"/>
		<polygon class="st2" points="461,269.1 480.6,249.6 461,230 		"/>
		<polygon class="st12" points="500.1,269.1 480.6,249.6 461,269.1 		"/>
		<polygon class="st8" points="461,230 480.6,249.6 500.1,230 		"/>
		<polygon class="st1" points="539.3,269.1 519.7,249.6 539.3,230 		"/>
		<polygon class="st2" points="500.1,269.1 519.7,249.6 500.1,230 		"/>
		<polygon class="st3" points="539.3,269.1 519.7,249.6 500.1,269.1 		"/>
		<polygon class="st4" points="500.1,230 519.7,249.6 539.3,230 		"/>
		<polygon class="st6" points="578.4,269.1 558.8,249.6 578.4,230 		"/>
		<polygon class="st5" points="539.3,269.1 558.8,249.6 539.3,230 		"/>
		<polygon class="st3" points="578.4,269.1 558.8,249.6 539.3,269.1 		"/>
		<polygon class="st6" points="539.3,230 558.8,249.6 578.4,230 		"/>
		<polygon class="st3" points="617.5,269.1 597.9,249.6 617.5,230 		"/>
		<polygon class="st6" points="578.4,269.1 597.9,249.6 578.4,230 		"/>
		<polygon class="st3" points="617.5,269.1 597.9,249.6 578.4,269.1 		"/>
		<polygon class="st6" points="578.4,230 597.9,249.6 617.5,230 		"/>
		<polygon class="st1" points="656.6,269.1 637.1,249.6 656.6,230 		"/>
		<polygon class="st3" points="617.5,269.1 637.1,249.6 617.5,230 		"/>
		<polygon class="st3" points="656.6,269.1 637.1,249.6 617.5,269.1 		"/>
		<polygon class="st4" points="617.5,230 637.1,249.6 656.6,230 		"/>
		<polygon class="st7" points="695.8,269.1 676.2,249.6 695.8,230 		"/>
		<polygon class="st5" points="656.6,269.1 676.2,249.6 656.6,230 		"/>
		<polygon class="st2" points="695.8,269.1 676.2,249.6 656.6,269.1 		"/>
		<polygon class="st3" points="656.6,230 676.2,249.6 695.8,230 		"/>
		<polygon class="st1" points="734.9,269.1 715.3,249.6 734.9,230 		"/>
		<polygon class="st2" points="695.8,269.1 715.3,249.6 695.8,230 		"/>
		<polygon class="st3" points="734.9,269.1 715.3,249.6 695.8,269.1 		"/>
		<polygon class="st4" points="695.8,230 715.3,249.6 734.9,230 		"/>
		<polygon class="st1" points="774,269.1 754.5,249.6 774,230 		"/>
		<polygon class="st5" points="734.9,269.1 754.5,249.6 734.9,230 		"/>
		<polygon class="st3" points="774,269.1 754.5,249.6 734.9,269.1 		"/>
		<polygon class="st9" points="734.9,230 754.5,249.6 774,230 		"/>
		<polygon class="st1" points="813.1,269.1 793.6,249.6 813.1,230 		"/>
		<polygon class="st2" points="774,269.1 793.6,249.6 774,230 		"/>
		<polygon class="st3" points="813.1,269.1 793.6,249.6 774,269.1 		"/>
		<polygon class="st9" points="774,230 793.6,249.6 813.1,230 		"/>
		<polygon class="st9" points="852.3,269.1 832.7,249.6 852.3,230 		"/>
		<polygon class="st2" points="813.1,269.1 832.7,249.6 813.1,230 		"/>
		<polygon class="st3" points="852.3,269.1 832.7,249.6 813.1,269.1 		"/>
		<polygon class="st4" points="813.1,230 832.7,249.6 852.3,230 		"/>
		<polygon class="st1" points="461,230 441.4,210.4 461,190.9 		"/>
		<polygon class="st5" points="421.9,230 441.4,210.4 421.9,190.9 		"/>
		<polygon class="st3" points="461,230 441.4,210.4 421.9,230 		"/>
		<polygon class="st4" points="421.9,190.9 441.4,210.4 461,190.9 		"/>
		<polygon class="st1" points="500.1,230 480.6,210.4 500.1,190.9 		"/>
		<polygon class="st7" points="461,230 480.6,210.4 461,190.9 		"/>
		<polygon class="st3" points="500.1,230 480.6,210.4 461,230 		"/>
		<polygon class="st7" points="461,190.9 480.6,210.4 500.1,190.9 		"/>
		<polygon class="st7" points="539.3,230 519.7,210.4 539.3,190.9 		"/>
		<polygon class="st2" points="500.1,230 519.7,210.4 500.1,190.9 		"/>
		<polygon class="st7" points="539.3,230 519.7,210.4 500.1,230 		"/>
		<polygon class="st4" points="500.1,190.9 519.7,210.4 539.3,190.9 		"/>
		<polygon class="st1" points="578.4,230 558.8,210.4 578.4,190.9 		"/>
		<polygon class="st7" points="539.3,230 558.8,210.4 539.3,190.9 		"/>
		<polygon class="st7" points="578.4,230 558.8,210.4 539.3,230 		"/>
		<polygon class="st4" points="539.3,190.9 558.8,210.4 578.4,190.9 		"/>
		<polygon class="st13" points="617.5,230 597.9,210.4 617.5,190.9 		"/>
		<polygon class="st2" points="578.4,230 597.9,210.4 578.4,190.9 		"/>
		<polygon class="st9" points="617.5,230 597.9,210.4 578.4,230 		"/>
		<polygon class="st6" points="578.4,190.9 597.9,210.4 617.5,190.9 		"/>
		<polygon class="st1" points="656.6,230 637.1,210.4 656.6,190.9 		"/>
		<polygon class="st6" points="617.5,230 637.1,210.4 617.5,190.9 		"/>
		<polygon class="st11" points="656.6,230 637.1,210.4 617.5,230 		"/>
		<polygon class="st6" points="617.5,190.9 637.1,210.4 656.6,190.9 		"/>
		<polygon class="st13" points="695.8,230 676.2,210.4 695.8,190.9 		"/>
		<polygon class="st2" points="656.6,230 676.2,210.4 656.6,190.9 		"/>
		<polygon class="st3" points="695.8,230 676.2,210.4 656.6,230 		"/>
		<polygon class="st4" points="656.6,190.9 676.2,210.4 695.8,190.9 		"/>
		<polygon class="st1" points="734.9,230 715.3,210.4 734.9,190.9 		"/>
		<polygon class="st2" points="695.8,230 715.3,210.4 695.8,190.9 		"/>
		<polygon class="st3" points="734.9,230 715.3,210.4 695.8,230 		"/>
		<polygon class="st4" points="695.8,190.9 715.3,210.4 734.9,190.9 		"/>
		<polygon class="st13" points="774,230 754.5,210.4 774,190.9 		"/>
		<polygon class="st2" points="734.9,230 754.5,210.4 734.9,190.9 		"/>
		<polygon class="st12" points="774,230 754.5,210.4 734.9,230 		"/>
		<polygon class="st4" points="734.9,190.9 754.5,210.4 774,190.9 		"/>
		<polygon class="st1" points="813.1,230 793.6,210.4 813.1,190.9 		"/>
		<polygon class="st2" points="774,230 793.6,210.4 774,190.9 		"/>
		<polygon class="st3" points="813.1,230 793.6,210.4 774,230 		"/>
		<polygon class="st8" points="774,190.9 793.6,210.4 813.1,190.9 		"/>
		<polygon class="st1" points="852.3,230 832.7,210.4 852.3,190.9 		"/>
		<polygon class="st13" points="813.1,230 832.7,210.4 813.1,190.9 		"/>
		<polygon class="st3" points="852.3,230 832.7,210.4 813.1,230 		"/>
		<polygon class="st4" points="813.1,190.9 832.7,210.4 852.3,190.9 		"/>
		<polygon class="st1" points="461,190.9 441.4,171.3 461,151.7 		"/>
		<polygon class="st2" points="421.9,190.9 441.4,171.3 421.9,151.7 		"/>
		<polygon class="st3" points="461,190.9 441.4,171.3 421.9,190.9 		"/>
		<polygon class="st4" points="421.9,151.7 441.4,171.3 461,151.7 		"/>
		<polygon class="st1" points="500.1,190.9 480.6,171.3 500.1,151.7 		"/>
		<polygon class="st13" points="461,190.9 480.6,171.3 461,151.7 		"/>
		<polygon class="st3" points="500.1,190.9 480.6,171.3 461,190.9 		"/>
		<polygon class="st4" points="461,151.7 480.6,171.3 500.1,151.7 		"/>
		<polygon class="st9" points="539.3,190.9 519.7,171.3 539.3,151.7 		"/>
		<polygon class="st2" points="500.1,190.9 519.7,171.3 500.1,151.7 		"/>
		<polygon class="st6" points="539.3,190.9 519.7,171.3 500.1,190.9 		"/>
		<polygon class="st9" points="500.1,151.7 519.7,171.3 539.3,151.7 		"/>
		<polygon class="st1" points="578.4,190.9 558.8,171.3 578.4,151.7 		"/>
		<polygon class="st8" points="539.3,190.9 558.8,171.3 539.3,151.7 		"/>
		<polygon class="st13" points="578.4,190.9 558.8,171.3 539.3,190.9 		"/>
		<polygon class="st9" points="539.3,151.7 558.8,171.3 578.4,151.7 		"/>
		<polygon class="st1" points="617.5,190.9 597.9,171.3 617.5,151.7 		"/>
		<polygon class="st2" points="578.4,190.9 597.9,171.3 578.4,151.7 		"/>
		<polygon class="st3" points="617.5,190.9 597.9,171.3 578.4,190.9 		"/>
		<polygon class="st4" points="578.4,151.7 597.9,171.3 617.5,151.7 		"/>
		<polygon class="st1" points="656.6,190.9 637.1,171.3 656.6,151.7 		"/>
		<polygon class="st2" points="617.5,190.9 637.1,171.3 617.5,151.7 		"/>
		<polygon class="st3" points="656.6,190.9 637.1,171.3 617.5,190.9 		"/>
		<polygon class="st9" points="617.5,151.7 637.1,171.3 656.6,151.7 		"/>
		<polygon class="st1" points="695.8,190.9 676.2,171.3 695.8,151.7 		"/>
		<polygon class="st2" points="656.6,190.9 676.2,171.3 656.6,151.7 		"/>
		<polygon class="st3" points="695.8,190.9 676.2,171.3 656.6,190.9 		"/>
		<polygon class="st3" points="656.6,151.7 676.2,171.3 695.8,151.7 		"/>
		<polygon class="st1" points="734.9,190.9 715.3,171.3 734.9,151.7 		"/>
		<polygon class="st5" points="695.8,190.9 715.3,171.3 695.8,151.7 		"/>
		<polygon class="st3" points="734.9,190.9 715.3,171.3 695.8,190.9 		"/>
		<polygon class="st3" points="695.8,151.7 715.3,171.3 734.9,151.7 		"/>
		<polygon class="st8" points="774,190.9 754.5,171.3 774,151.7 		"/>
		<polygon class="st12" points="734.9,190.9 754.5,171.3 734.9,151.7 		"/>
		<polygon class="st3" points="774,190.9 754.5,171.3 734.9,190.9 		"/>
		<polygon class="st9" points="734.9,151.7 754.5,171.3 774,151.7 		"/>
		<polygon class="st1" points="813.1,190.9 793.6,171.3 813.1,151.7 		"/>
		<polygon class="st7" points="774,190.9 793.6,171.3 774,151.7 		"/>
		<polygon class="st3" points="813.1,190.9 793.6,171.3 774,190.9 		"/>
		<polygon class="st6" points="774,151.7 793.6,171.3 813.1,151.7 		"/>
		<polygon class="st6" points="852.3,190.9 832.7,171.3 852.3,151.7 		"/>
		<polygon class="st2" points="813.1,190.9 832.7,171.3 813.1,151.7 		"/>
		<polygon class="st3" points="852.3,190.9 832.7,171.3 813.1,190.9 		"/>
		<polygon class="st4" points="813.1,151.7 832.7,171.3 852.3,151.7 		"/>
		<polygon class="st2" points="461,151.7 441.4,132.2 461,112.6 		"/>
		<polygon class="st2" points="421.9,151.7 441.4,132.2 421.9,112.6 		"/>
		<polygon class="st12" points="461,151.7 441.4,132.2 421.9,151.7 		"/>
		<polygon class="st4" points="421.9,112.6 441.4,132.2 461,112.6 		"/>
		<polygon class="st12" points="500.1,151.7 480.6,132.2 500.1,112.6 		"/>
		<polygon class="st13" points="461,151.7 480.6,132.2 461,112.6 		"/>
		<polygon class="st12" points="500.1,151.7 480.6,132.2 461,151.7 		"/>
		<polygon class="st6" points="461,112.6 480.6,132.2 500.1,112.6 		"/>
		<polygon class="st2" points="539.3,151.7 519.7,132.2 539.3,112.6 		"/>
		<polygon class="st6" points="500.1,151.7 519.7,132.2 500.1,112.6 		"/>
		<polygon class="st6" points="539.3,151.7 519.7,132.2 500.1,151.7 		"/>
		<polygon class="st12" points="500.1,112.6 519.7,132.2 539.3,112.6 		"/>
		<polygon class="st12" points="578.4,151.7 558.8,132.2 578.4,112.6 		"/>
		<polygon class="st2" points="539.3,151.7 558.8,132.2 539.3,112.6 		"/>
		<polygon class="st2" points="578.4,151.7 558.8,132.2 539.3,151.7 		"/>
		<polygon class="st12" points="539.3,112.6 558.8,132.2 578.4,112.6 		"/>
		<polygon class="st3" points="617.5,151.7 597.9,132.2 617.5,112.6 		"/>
		<polygon class="st12" points="578.4,151.7 597.9,132.2 578.4,112.6 		"/>
		<polygon class="st6" points="617.5,151.7 597.9,132.2 578.4,151.7 		"/>
		<polygon class="st3" points="578.4,112.6 597.9,132.2 617.5,112.6 		"/>
		<polygon class="st3" points="656.6,151.7 637.1,132.2 656.6,112.6 		"/>
		<polygon class="st2" points="617.5,151.7 637.1,132.2 617.5,112.6 		"/>
		<polygon class="st3" points="656.6,151.7 637.1,132.2 617.5,151.7 		"/>
		<polygon class="st4" points="617.5,112.6 637.1,132.2 656.6,112.6 		"/>
		<polygon class="st1" points="695.8,151.7 676.2,132.2 695.8,112.6 		"/>
		<polygon class="st3" points="656.6,151.7 676.2,132.2 656.6,112.6 		"/>
		<polygon class="st3" points="695.8,151.7 676.2,132.2 656.6,151.7 		"/>
		<polygon class="st6" points="656.6,112.6 676.2,132.2 695.8,112.6 		"/>
		<polygon class="st1" points="734.9,151.7 715.3,132.2 734.9,112.6 		"/>
		<polygon class="st2" points="695.8,151.7 715.3,132.2 695.8,112.6 		"/>
		<polygon class="st3" points="734.9,151.7 715.3,132.2 695.8,151.7 		"/>
		<polygon class="st8" points="695.8,112.6 715.3,132.2 734.9,112.6 		"/>
		<polygon class="st1" points="774,151.7 754.5,132.2 774,112.6 		"/>
		<polygon class="st8" points="734.9,151.7 754.5,132.2 734.9,112.6 		"/>
		<polygon class="st8" points="774,151.7 754.5,132.2 734.9,151.7 		"/>
		<polygon class="st4" points="734.9,112.6 754.5,132.2 774,112.6 		"/>
		<polygon class="st12" points="813.1,151.7 793.6,132.2 813.1,112.6 		"/>
		<polygon class="st7" points="774,151.7 793.6,132.2 774,112.6 		"/>
		<polygon class="st13" points="813.1,151.7 793.6,132.2 774,151.7 		"/>
		<polygon class="st4" points="774,112.6 793.6,132.2 813.1,112.6 		"/>
		<polygon class="st12" points="852.3,151.7 832.7,132.2 852.3,112.6 		"/>
		<polygon class="st12" points="813.1,151.7 832.7,132.2 813.1,112.6 		"/>
		<polygon class="st6" points="852.3,151.7 832.7,132.2 813.1,151.7 		"/>
		<polygon class="st2" points="813.1,112.6 832.7,132.2 852.3,112.6 		"/>
		<polygon class="st1" points="461,112.6 441.4,93.1 461,73.5 		"/>
		<polygon class="st3" points="421.9,112.6 441.4,93.1 421.9,73.5 		"/>
		<polygon class="st3" points="461,112.6 441.4,93.1 421.9,112.6 		"/>
		<polygon class="st4" points="421.9,73.5 441.4,93.1 461,73.5 		"/>
		<polygon class="st13" points="500.1,112.6 480.6,93.1 500.1,73.5 		"/>
		<polygon class="st5" points="461,112.6 480.6,93.1 461,73.5 		"/>
		<polygon class="st2" points="500.1,112.6 480.6,93.1 461,112.6 		"/>
		<polygon class="st4" points="461,73.5 480.6,93.1 500.1,73.5 		"/>
		<polygon class="st13" points="539.3,112.6 519.7,93.1 539.3,73.5 		"/>
		<polygon class="st13" points="500.1,112.6 519.7,93.1 500.1,73.5 		"/>
		<polygon class="st13" points="539.3,112.6 519.7,93.1 500.1,112.6 		"/>
		<polygon class="st2" points="500.1,73.5 519.7,93.1 539.3,73.5 		"/>
		<polygon class="st3" points="578.4,112.6 558.8,93.1 578.4,73.5 		"/>
		<polygon class="st13" points="539.3,112.6 558.8,93.1 539.3,73.5 		"/>
		<polygon class="st2" points="578.4,112.6 558.8,93.1 539.3,112.6 		"/>
		<polygon class="st3" points="539.3,73.5 558.8,93.1 578.4,73.5 		"/>
		<polygon class="st3" points="617.5,112.6 597.9,93.1 617.5,73.5 		"/>
		<polygon class="st3" points="578.4,112.6 597.9,93.1 578.4,73.5 		"/>
		<polygon class="st3" points="617.5,112.6 597.9,93.1 578.4,112.6 		"/>
		<polygon class="st3" points="578.4,73.5 597.9,93.1 617.5,73.5 		"/>
		<polygon class="st1" points="656.6,112.6 637.1,93.1 656.6,73.5 		"/>
		<polygon class="st2" points="617.5,112.6 637.1,93.1 617.5,73.5 		"/>
		<polygon class="st3" points="656.6,112.6 637.1,93.1 617.5,112.6 		"/>
		<polygon class="st4" points="617.5,73.5 637.1,93.1 656.6,73.5 		"/>
		<polygon class="st1" points="695.8,112.6 676.2,93.1 695.8,73.5 		"/>
		<polygon class="st2" points="656.6,112.6 676.2,93.1 656.6,73.5 		"/>
		<polygon class="st3" points="695.8,112.6 676.2,93.1 656.6,112.6 		"/>
		<polygon class="st8" points="656.6,73.5 676.2,93.1 695.8,73.5 		"/>
		<polygon class="st1" points="734.9,112.6 715.3,93.1 734.9,73.5 		"/>
		<polygon class="st5" points="695.8,112.6 715.3,93.1 695.8,73.5 		"/>
		<polygon class="st3" points="734.9,112.6 715.3,93.1 695.8,112.6 		"/>
		<polygon class="st13" points="695.8,73.5 715.3,93.1 734.9,73.5 		"/>
		<polygon class="st1" points="774,112.6 754.5,93.1 774,73.5 		"/>
		<polygon class="st13" points="734.9,112.6 754.5,93.1 734.9,73.5 		"/>
		<polygon class="st12" points="774,112.6 754.5,93.1 734.9,112.6 		"/>
		<polygon class="st9" points="734.9,73.5 754.5,93.1 774,73.5 		"/>
		<polygon class="st1" points="813.1,112.6 793.6,93.1 813.1,73.5 		"/>
		<polygon class="st2" points="774,112.6 793.6,93.1 774,73.5 		"/>
		<polygon class="st3" points="813.1,112.6 793.6,93.1 774,112.6 		"/>
		<polygon class="st1" points="774,73.5 793.6,93.1 813.1,73.5 		"/>
		<polygon class="st12" points="852.3,112.6 832.7,93.1 852.3,73.5 		"/>
		<polygon class="st5" points="813.1,112.6 832.7,93.1 813.1,73.5 		"/>
		<polygon class="st12" points="852.3,112.6 832.7,93.1 813.1,112.6 		"/>
		<polygon class="st4" points="813.1,73.5 832.7,93.1 852.3,73.5 		"/>
		<polygon class="st1" points="461,73.5 441.4,53.9 461,34.4 		"/>
		<polygon class="st2" points="421.9,73.5 441.4,53.9 421.9,34.4 		"/>
		<polygon class="st3" points="461,73.5 441.4,53.9 421.9,73.5 		"/>
		<polygon class="st4" points="421.9,34.4 441.4,53.9 461,34.4 		"/>
		<polygon class="st1" points="500.1,73.5 480.6,53.9 500.1,34.4 		"/>
		<polygon class="st5" points="461,73.5 480.6,53.9 461,34.4 		"/>
		<polygon class="st3" points="500.1,73.5 480.6,53.9 461,73.5 		"/>
		<polygon class="st4" points="461,34.4 480.6,53.9 500.1,34.4 		"/>
		<polygon class="st1" points="539.3,73.5 519.7,53.9 539.3,34.4 		"/>
		<polygon class="st2" points="500.1,73.5 519.7,53.9 500.1,34.4 		"/>
		<polygon class="st13" points="539.3,73.5 519.7,53.9 500.1,73.5 		"/>
		<polygon class="st4" points="500.1,34.4 519.7,53.9 539.3,34.4 		"/>
		<polygon class="st1" points="578.4,73.5 558.8,53.9 578.4,34.4 		"/>
		<polygon class="st2" points="539.3,73.5 558.8,53.9 539.3,34.4 		"/>
		<polygon class="st7" points="578.4,73.5 558.8,53.9 539.3,73.5 		"/>
		<polygon class="st4" points="539.3,34.4 558.8,53.9 578.4,34.4 		"/>
		<polygon class="st1" points="617.5,73.5 597.9,53.9 617.5,34.4 		"/>
		<polygon class="st2" points="578.4,73.5 597.9,53.9 578.4,34.4 		"/>
		<polygon class="st6" points="617.5,73.5 597.9,53.9 578.4,73.5 		"/>
		<polygon class="st4" points="578.4,34.4 597.9,53.9 617.5,34.4 		"/>
		<polygon class="st1" points="656.6,73.5 637.1,53.9 656.6,34.4 		"/>
		<polygon class="st2" points="617.5,73.5 637.1,53.9 617.5,34.4 		"/>
		<polygon class="st6" points="656.6,73.5 637.1,53.9 617.5,73.5 		"/>
		<polygon class="st4" points="617.5,34.4 637.1,53.9 656.6,34.4 		"/>
		<polygon class="st1" points="695.8,73.5 676.2,53.9 695.8,34.4 		"/>
		<polygon class="st3" points="656.6,73.5 676.2,53.9 656.6,34.4 		"/>
		<polygon class="st3" points="695.8,73.5 676.2,53.9 656.6,73.5 		"/>
		<polygon class="st4" points="656.6,34.4 676.2,53.9 695.8,34.4 		"/>
		<polygon class="st7" points="734.9,73.5 715.3,53.9 734.9,34.4 		"/>
		<polygon class="st2" points="695.8,73.5 715.3,53.9 695.8,34.4 		"/>
		<polygon class="st3" points="734.9,73.5 715.3,53.9 695.8,73.5 		"/>
		<polygon class="st9" points="695.8,34.4 715.3,53.9 734.9,34.4 		"/>
		<polygon class="st9" points="774,73.5 754.5,53.9 774,34.4 		"/>
		<polygon class="st9" points="734.9,73.5 754.5,53.9 734.9,34.4 		"/>
		<polygon class="st8" points="774,73.5 754.5,53.9 734.9,73.5 		"/>
		<polygon class="st9" points="734.9,34.4 754.5,53.9 774,34.4 		"/>
		<polygon class="st1" points="813.1,73.5 793.6,53.9 813.1,34.4 		"/>
		<polygon class="st9" points="774,73.5 793.6,53.9 774,34.4 		"/>
		<polygon class="st1" points="813.1,73.5 793.6,53.9 774,73.5 		"/>
		<polygon class="st8" points="774,34.4 793.6,53.9 813.1,34.4 		"/>
		<polygon class="st1" points="852.3,73.5 832.7,53.9 852.3,34.4 		"/>
		<polygon class="st5" points="813.1,73.5 832.7,53.9 813.1,34.4 		"/>
		<polygon class="st3" points="852.3,73.5 832.7,53.9 813.1,73.5 		"/>
		<polygon class="st4" points="813.1,34.4 832.7,53.9 852.3,34.4 		"/>
		<polygon class="st1" points="461,34.4 441.4,14.8 461,-4.8 		"/>
		<polygon class="st2" points="421.9,34.4 441.4,14.8 421.9,-4.8 		"/>
		<polygon class="st3" points="461,34.4 441.4,14.8 421.9,34.4 		"/>
		<polygon class="st4" points="421.9,-4.8 441.4,14.8 461,-4.8 		"/>
		<polygon class="st4" points="500.1,34.4 480.6,14.8 500.1,-4.8 		"/>
		<polygon class="st2" points="461,34.4 480.6,14.8 461,-4.8 		"/>
		<polygon class="st3" points="500.1,34.4 480.6,14.8 461,34.4 		"/>
		<polygon class="st4" points="461,-4.8 480.6,14.8 500.1,-4.8 		"/>
		<polygon class="st4" points="539.3,34.4 519.7,14.8 539.3,-4.8 		"/>
		<polygon class="st4" points="500.1,34.4 519.7,14.8 500.1,-4.8 		"/>
		<polygon class="st6" points="539.3,34.4 519.7,14.8 500.1,34.4 		"/>
		<polygon class="st6" points="500.1,-4.8 519.7,14.8 539.3,-4.8 		"/>
		<polygon class="st1" points="578.4,34.4 558.8,14.8 578.4,-4.8 		"/>
		<polygon class="st4" points="539.3,34.4 558.8,14.8 539.3,-4.8 		"/>
		<polygon class="st3" points="578.4,34.4 558.8,14.8 539.3,34.4 		"/>
		<polygon class="st4" points="539.3,-4.8 558.8,14.8 578.4,-4.8 		"/>
		<polygon class="st1" points="617.5,34.4 597.9,14.8 617.5,-4.8 		"/>
		<polygon class="st2" points="578.4,34.4 597.9,14.8 578.4,-4.8 		"/>
		<polygon class="st3" points="617.5,34.4 597.9,14.8 578.4,34.4 		"/>
		<polygon class="st1" points="578.4,-4.8 597.9,14.8 617.5,-4.8 		"/>
		<polygon class="st1" points="656.6,34.4 637.1,14.8 656.6,-4.8 		"/>
		<polygon class="st5" points="617.5,34.4 637.1,14.8 617.5,-4.8 		"/>
		<polygon class="st3" points="656.6,34.4 637.1,14.8 617.5,34.4 		"/>
		<polygon class="st9" points="617.5,-4.8 637.1,14.8 656.6,-4.8 		"/>
		<polygon class="st1" points="695.8,34.4 676.2,14.8 695.8,-4.8 		"/>
		<polygon class="st2" points="656.6,34.4 676.2,14.8 656.6,-4.8 		"/>
		<polygon class="st3" points="695.8,34.4 676.2,14.8 656.6,34.4 		"/>
		<polygon class="st9" points="656.6,-4.8 676.2,14.8 695.8,-4.8 		"/>
		<polygon class="st1" points="734.9,34.4 715.3,14.8 734.9,-4.8 		"/>
		<polygon class="st2" points="695.8,34.4 715.3,14.8 695.8,-4.8 		"/>
		<polygon class="st3" points="734.9,34.4 715.3,14.8 695.8,34.4 		"/>
		<polygon class="st8" points="695.8,-4.8 715.3,14.8 734.9,-4.8 		"/>
		<polygon class="st1" points="774,34.4 754.5,14.8 774,-4.8 		"/>
		<polygon class="st11" points="734.9,34.4 754.5,14.8 734.9,-4.8 		"/>
		<polygon class="st3" points="774,34.4 754.5,14.8 734.9,34.4 		"/>
		<polygon class="st11" points="734.9,-4.8 754.5,14.8 774,-4.8 		"/>
		<polygon class="st1" points="813.1,34.4 793.6,14.8 813.1,-4.8 		"/>
		<polygon class="st7" points="774,34.4 793.6,14.8 774,-4.8 		"/>
		<polygon class="st3" points="813.1,34.4 793.6,14.8 774,34.4 		"/>
		<polygon class="st9" points="774,-4.8 793.6,14.8 813.1,-4.8 		"/>
		<polygon class="st1" points="852.3,34.4 832.7,14.8 852.3,-4.8 		"/>
		<polygon class="st2" points="813.1,34.4 832.7,14.8 813.1,-4.8 		"/>
		<polygon class="st3" points="852.3,34.4 832.7,14.8 813.1,34.4 		"/>
		<polygon class="st4" points="813.1,-4.8 832.7,14.8 852.3,-4.8 		"/>
	</g>
</g>
</svg>
