<svg xmlns="http://www.w3.org/2000/svg" x="0px" y="0px" width="60" height="60" viewBox="0 0 172 172">
  <g fill="none" fill-rule="nonzero" stroke="none" stroke-width="1" stroke-linecap="butt" stroke-linejoin="miter"
    stroke-miterlimit="10" stroke-dasharray="" stroke-dashoffset="0" font-family="none" font-weight="none"
    font-size="none" text-anchor="none" style="mix-blend-mode: normal">
    <path d="M0,172v-172h172v172z" fill="none"></path>
    <g id="original-icon" fill="#ffffff">
      <path
        d="M42.66742,24.54023c-0.47472,0 -0.86,0.38528 -0.86,0.86v33.23766l-12.29195,-9.26852c-0.3784,-0.2838 -0.91713,-0.20879 -1.20265,0.17133c-0.28552,0.38012 -0.21215,0.9205 0.16797,1.20602l12.89328,9.71531c0.0172,0.01376 0.04155,0.00812 0.06047,0.02015c0.13932,0.08944 0.28847,0.15117 0.45015,0.15117l0.00336,0.00336h0.00336v-0.00336c0.129,0 0.25765,-0.03058 0.37289,-0.08734c0.1204,0.06536 0.25521,0.11422 0.40312,0.11422c0.47472,0 0.86,-0.38528 0.86,-0.86v-0.18477l11.76789,-8.86875c0.38012,-0.28552 0.45349,-0.8259 0.16797,-1.20602c-0.28552,-0.38012 -0.82254,-0.45341 -1.20266,-0.17133l-10.7332,8.09273v-32.06187c0,-0.47472 -0.38528,-0.86 -0.86,-0.86zM70.83242,24.54023c-0.23048,0 -0.45696,0.04829 -0.66852,0.13773c-0.93396,0.39388 -8.98068,3.97492 -7.71648,9.46v56.31992c-2.44584,-0.85484 -5.76789,-3.11473 -8.99977,-5.31117c-6.08364,-4.13488 -12.36589,-8.41948 -17.38141,-7.09164c-4.50468,1.18508 -9.2135,4.71804 -8.90906,9.67164c0.129,2.10012 3.65543,5.53985 16.60875,17.13953c8.82532,7.9034 20.85213,18.67348 22.12149,22.16852v28.22547c0,0.95116 0.77056,1.72 1.72,1.72h61.92c0.94944,0 1.72,-0.76884 1.72,-1.72v-81.61602c0,-2.85692 -1.12289,-5.54743 -3.16453,-7.57875c-2.0038,-1.99348 -4.6379,-3.08727 -7.42086,-3.08727h-0.05039c-3.10632,0.01548 -5.27102,0.64331 -6.76914,1.57555c-0.82044,-4.85728 -5.05583,-8.56977 -10.14531,-8.56977c-2.96012,0 -5.63332,1.25635 -7.51156,3.26531c-1.21948,-3.2766 -4.01166,-5.79154 -7.42758,-6.36602c-2.7004,-0.45752 -5.34382,0.28017 -7.39062,1.87117v-20.61984c0,-5.29072 -4.30193,-9.59437 -9.59437,-9.59437zM71.19523,27.98023h0.57781c3.39356,0 6.15438,2.76082 6.15438,6.15437v25.95453c0,0.84452 0.61369,1.5674 1.44789,1.69984c0.83936,0.13588 1.64496,-0.36246 1.90812,-1.1657c0.99244,-3.02548 3.88664,-4.86303 6.90352,-4.34703c2.9756,0.50052 5.22047,3.35448 5.22047,6.64484v3.3493c0,0.95116 0.77056,1.72 1.72,1.72c0.94944,0 1.72,-0.76884 1.72,-1.72c0,-3.77712 3.07436,-6.84641 6.84976,-6.84641c3.7754,0 6.84977,3.07208 6.84977,6.87328l0.06047,4.49148c0.01204,0.94084 0.77916,1.69648 1.72,1.69648h0.01008c0.94428,-0.00688 1.70992,-0.774 1.70992,-1.72c0,-1.18164 0.0003,-4.32115 6.58101,-4.35039h0.0336c1.86792,0 3.64175,0.74277 4.99539,2.08953c1.38632,1.38116 2.15,3.2032 2.15,5.13648v79.89938h-58.48v-26.7675c0,-0.15136 -0.02091,-0.30396 -0.06047,-0.45016c-0.0258,-0.0946 -0.07646,-0.20258 -0.11086,-0.30234h44.03133c0.47472,0 0.86,-0.38528 0.86,-0.86c0,-0.47472 -0.38528,-0.86 -0.86,-0.86h-44.89805c-2.79156,-4.4204 -10.85806,-11.81651 -22.22898,-21.99719c-6.52224,-5.84112 -14.61836,-13.08874 -15.47664,-14.9257c-0.0688,-2.82252 3.11718,-5.14672 6.35594,-5.99984c3.49332,-0.91676 9.38193,3.08517 14.57633,6.61461c4.92092,3.34368 9.17045,6.23264 12.63797,6.26188c0.473,-0.07224 0.90109,-0.17555 1.22617,-0.49719c0.32508,-0.32164 0.50727,-0.76357 0.50727,-1.22281v-58.60766c0,-0.15652 -0.02083,-0.31395 -0.06383,-0.46359c-0.57448,-2.05884 3.18724,-4.47974 5.37164,-5.4825zM78.78742,81.30023c-0.47472,0 -0.86,0.38528 -0.86,0.86v32.68c0,0.47472 0.38528,0.86 0.86,0.86c0.47472,0 0.86,-0.38528 0.86,-0.86v-32.68c0,-0.47644 -0.38528,-0.86 -0.86,-0.86zM95.98742,81.30023c-0.47472,0 -0.86,0.38528 -0.86,0.86v24.08c0,0.47472 0.38528,0.86 0.86,0.86c0.47472,0 0.86,-0.38528 0.86,-0.86v-24.08c0,-0.47644 -0.38528,-0.86 -0.86,-0.86zM95.98742,107.10023c-0.47472,0 -0.86,0.38356 -0.86,0.86v3.44c0,0.47472 0.38528,0.86 0.86,0.86c0.47472,0 0.86,-0.38528 0.86,-0.86v-3.44c0,-0.47472 -0.38528,-0.86 -0.86,-0.86zM111.46742,81.30023c-0.47472,0 -0.86,0.38528 -0.86,0.86v15.48c0,0.47472 0.38528,0.86 0.86,0.86c0.47472,0 0.86,-0.38528 0.86,-0.86v-15.48c0,-0.47644 -0.38528,-0.86 -0.86,-0.86zM95.98742,113.98359c-0.1118,0 -0.22266,0.02419 -0.32586,0.06719c-0.1032,0.0344 -0.20667,0.10385 -0.27547,0.18812c-0.172,0.15652 -0.25867,0.37773 -0.25867,0.60133c0,0.2236 0.08667,0.44653 0.25867,0.60133c0.0688,0.086 0.17227,0.15708 0.27547,0.19148c0.1032,0.0516 0.20546,0.06719 0.32586,0.06719c0.2236,0 0.44653,-0.08667 0.60133,-0.25867c0.172,-0.1548 0.25867,-0.37773 0.25867,-0.60133c0,-0.2236 -0.08667,-0.44481 -0.25867,-0.60133c-0.0688,-0.086 -0.17227,-0.15544 -0.27547,-0.18812c-0.1032,-0.043 -0.21406,-0.06719 -0.32586,-0.06719zM116.62742,124.30023c-0.47472,0 -0.86,0.38528 -0.86,0.86c0,0.47472 0.38528,0.86 0.86,0.86h1.72c0.47472,0 0.86,-0.38528 0.86,-0.86c0,-0.47472 -0.38528,-0.86 -0.86,-0.86zM121.62617,124.32375c-0.1634,0.03418 -0.31968,0.11562 -0.44008,0.23516c-0.172,0.15652 -0.25867,0.37773 -0.25867,0.60133c0,0.2236 0.08667,0.44653 0.25867,0.60133c0.0688,0.086 0.17227,0.15708 0.27547,0.19148c0.1032,0.0516 0.20546,0.06719 0.32586,0.06719c0.2236,0 0.44653,-0.08667 0.60133,-0.25867c0.172,-0.1548 0.25867,-0.37773 0.25867,-0.60133c0,-0.2236 -0.08667,-0.44481 -0.25867,-0.60133c-0.0688,-0.086 -0.17227,-0.15544 -0.27547,-0.18812c-0.1548,-0.0688 -0.32371,-0.08122 -0.48711,-0.04703zM115.76742,136.34023c-2.84488,0 -5.16,2.31512 -5.16,5.16c0,2.84488 2.31512,5.16 5.16,5.16c2.84488,0 5.16,-2.31512 5.16,-5.16c0,-2.84488 -2.31512,-5.16 -5.16,-5.16zM115.76742,138.06023c1.89716,0 3.44,1.54284 3.44,3.44c0,1.89716 -1.54284,3.44 -3.44,3.44c-1.89716,0 -3.44,-1.54284 -3.44,-3.44c0,-1.89716 1.54284,-3.44 3.44,-3.44z">
      </path>
    </g>
  </g>
</svg>
